<svg xmlns="http://www.w3.org/2000/svg" xmlns:xlink="http://www.w3.org/1999/xlink" viewBox="369.62 27.93 972.14 962.74"><path fill="#F3695D" d="M443.719 525.504C438.33 527.335 431.417 531.327 426.366 532.527C420.187 533.993 413.349 510.409 413.697 506.296C414.299 505.15 414.828 503.787 416.177 503.422C426.66 500.591 437.495 497.493 447.571 493.362L447.542 492.525L444.664 492.384C442.437 489.54 443.292 463.866 443.293 458.016L443.342 408.21C443.348 403.077 443.962 384.136 442.889 380.308C437.969 362.744 431.835 355.283 431.884 335.14C431.863 326.161 433.442 317.251 436.548 308.826C438.605 303.39 442.913 294.331 443.15 288.865C443.561 279.388 443.395 269.289 443.381 259.765L443.308 207.56C443.3 199.085 443.193 189.811 443.408 181.282C443.452 179.516 443.881 179.582 444.966 178.821C452.75 181.243 482.931 200.007 492.529 205.517C545.041 235.661 597.056 267.741 649.868 297.223C659.023 302.334 681.903 317.397 689.594 320.272C697.098 320.197 697.768 312.51 699.548 306.576C703.121 312.023 705.232 318.241 710.061 323.06C712.788 325.782 714.723 325.248 716.885 327.72C715.867 329.483 713.697 329.911 711.471 330.85C711.493 333.639 726.428 341.188 729.79 343.208L766.786 365.641C776.928 371.834 785.622 376.642 794.005 385.193C807.258 374.877 820.404 362.038 815.52 343.516C806.531 334.402 798.609 316.213 798.308 303.067C798.045 291.58 801.981 279.233 810.049 270.556C811.304 269.206 819.446 264.6 820.499 263.295C823.089 260.088 822.039 257.849 825.779 253.96C837.256 240.209 855.394 249.959 869.904 251.584C876.756 252.351 884.151 250.454 890.982 249.923C927.824 247.667 953.713 276.036 956.434 310.912C957.566 317.382 957.091 336.275 957.09 343.776C958.283 352.45 959.228 358.571 961.901 367.02L962.09 367.406C967.909 379.11 979.867 385.303 976.292 398.183C969.003 414.533 955.516 419.42 940.276 426.299C971.339 445.498 1013.71 487.033 1026.31 522.707C1029.49 531.704 1022.34 552.455 1016.84 560.302L1014.42 563.987L1014.75 564.876L1015.83 565.05C1028.89 564.852 1078.02 559.55 1090.09 556.272C1096.99 555.018 1118.66 549.811 1117.59 541.228C1109.42 529.401 1049.74 529.7 1039.16 511.868C1027.17 490.444 1098.2 490.694 1104.53 487.203L1104.82 485.947C1103.18 483.841 1101.36 481.642 1099.97 479.382C1105.48 481.25 1117.01 483.887 1118.23 490.321C1113.11 501.429 1067.93 500.452 1059.48 506.148L1059.2 507.539C1067.57 518.779 1150.8 520.364 1151.26 548.222C1151.31 551.346 1146.62 556.566 1143.66 558.187C1105.89 578.916 1040.23 582.364 998.065 585.634C992.939 590.769 983.459 600.738 977.949 604.992C968.835 614.257 961.586 619.536 952.658 627.682L953.452 642.359C950.58 638.882 950.83 637.418 949.361 633.103C949.098 632.537 948.579 629.88 948.411 629.102C936.98 634.732 934.838 646.144 920.956 639.224C907.71 632.621 903.588 620.992 900.654 607.642C896.381 606.515 882.83 608.221 877.585 608.218C854.352 608.204 817.189 607.288 795.829 599.528C792.142 632.869 799.4 675.923 798.014 708.675L798.55 712.856L797.738 714.715C796.614 714.683 795.491 714.645 794.368 714.602C794.432 709.785 793.966 702.848 793.77 697.883C793.859 685.765 792.912 671.562 792.621 659.159C767.67 656.897 737.936 652.353 715.758 639.747C712.329 637.797 707.408 632.895 707.134 628.874C706.156 614.496 725.728 608.711 736.449 605.059C754.591 598.972 773.567 596.883 792.338 594.53C792.241 591.089 792.831 585.669 793.112 582.092C795.153 565.579 799.582 548.612 803.196 532.337C795.834 540.419 788.584 546.913 778.271 550.954C768.241 554.453 764.16 554.764 753.55 553.491C728.833 548.053 700.429 524.383 685.603 504.423C674.429 492.688 657.878 506.624 652.016 485.058C645.454 487.166 641.358 489.266 635.351 492.457C579.938 521.885 524.806 551.868 469.321 581.159C461.112 585.492 452.116 590.549 443.61 594.073C442.92 586.054 443.24 571.077 443.303 562.724C443.388 551.295 442.85 536.474 443.719 525.504ZM700.171 457.502C705.131 461.888 711.516 465.982 717.1 469.636L717.553 469.936C727.114 476.178 748.775 487.583 759.874 493.514C762.587 489.653 771.891 479.301 775.43 475.088C792.109 455.229 807.31 434.211 829.565 420.302C818.475 416.024 808.608 409.93 800.423 401.188C791.031 409.404 769.292 420.718 757.56 427.047C738.548 437.418 719.417 447.571 700.171 457.502ZM830.357 417.053C834.287 418.457 843.122 413.336 848.465 411.645L849.582 412.581C850.997 408.757 853.549 403.875 854.51 400.392L852.872 399.585C843.893 397.361 837.001 392.966 830.307 386.684C826.991 383.805 820.866 374.472 820.132 370.11C819.638 369.109 818.861 367.815 818.721 366.789L817.771 366.562C815.183 368.283 814.904 372.802 812.981 375.082C808.193 380.76 802.737 385.011 796.06 387.841C806.099 403.289 813.796 407.157 829.395 416.166C829.99 416.51 829.814 416.426 830.357 417.053ZM642.195 440.025C653.337 426.341 659.066 414.768 657.329 396.576C654.733 369.378 635.315 345.332 606.628 346.241C583.774 349.732 576.214 375.488 579.422 395.495C581.904 410.583 590.255 424.075 602.651 433.022C611.86 439.578 619.778 441.094 630.678 441.931C635.304 441.493 637.666 441.085 642.195 440.025ZM704.082 473.408C703.918 471.905 703.556 468.119 702.629 467.066C694.919 458.307 687.678 449.547 681.017 439.933C679.06 437.107 677.369 435.063 673.922 434.216C671.464 434.982 671.077 434.95 669.34 436.712C670.014 440.517 677.047 446.043 679.317 449.666C681.092 452.497 678.88 457.941 679.882 460.114C688.33 478.432 694.973 472.777 688.236 493.81C691.586 493.585 695.976 488.197 698.096 485.764C698.857 484.9 699.602 484.022 700.33 483.129C702.209 479.173 702.855 477.599 704.082 473.408ZM463.638 513.968L471.697 510.64C470.215 507.328 464.336 491.216 462.906 490.554C459.845 491.706 456.681 493.019 453.502 493.729C456.511 500.387 458.591 507.716 461.396 513.608C462.292 513.807 462.755 514.003 463.638 513.968ZM707.411 328.01C704.974 323.676 703.675 322.368 700.267 318.655L699.61 319.304C696.713 322.138 695.589 322.879 692.17 325.03C696.26 331.271 696.938 329.979 699.467 337.912C701.569 336.837 705.76 330.322 707.411 328.01ZM518.432 259.883C511.943 258.901 509.718 258.793 503.277 258.903C497.074 259.557 493.367 259.923 487.259 261.451C422.474 282.604 418.191 377.261 477.949 406.981C495.925 415.921 518.766 417.88 537.709 411.194C550.279 406.793 550.552 403.973 559.513 397.003C562.704 393.678 564.288 392.124 566.748 388.29C554.288 399.335 544.024 406.497 526.96 409.146C506.375 412.498 485.309 407.394 468.539 394.992C416.541 356.436 440.461 265.832 506.239 261.06C510.141 260.777 514.566 260.394 518.432 259.883ZM457.683 515.972C456.393 512.558 451.665 498.499 449.775 496.795C443.48 498.471 430.946 502.98 424.652 505.529C425.471 507.897 431.165 525.065 432.188 525.862C440.527 522.533 449.234 518.902 457.683 515.972ZM468.911 528.808C472.133 528.456 474.867 528.124 478.118 528.099C476.939 525.028 474.066 516.27 471.738 514.62C468.562 516.114 465.716 517.51 462.396 518.673C464.216 521.893 466.363 527.127 468.911 528.808ZM475.627 509.252C481.93 507.481 498.406 501.117 503.822 497.534C502.48 494.36 497.38 478.676 496.346 477.866C487.191 481.523 476.527 485.488 467.582 489.392C468.945 492.623 474.4 508.186 475.627 509.252ZM427.544 528.817C427.86 524.152 422.939 509.405 419.623 506.18L417.44 506.169C417.467 511.215 423.145 526.13 427.544 528.817ZM617.517 342.985C651.841 354.103 668.387 385.159 658.348 420.849C657.503 423.853 653.45 430.27 653.854 432.274L656.465 431.848C679.36 399.764 657.439 341.301 617.517 342.985Z"/><path fill="#FEFEFE" d="M825.779 253.96C837.256 240.209 855.394 249.959 869.904 251.584C876.756 252.351 884.151 250.454 890.982 249.923C927.824 247.667 953.713 276.036 956.434 310.912C957.566 317.382 957.091 336.275 957.09 343.776C958.283 352.45 959.228 358.571 961.901 367.02L962.09 367.406C967.909 379.11 979.867 385.303 976.292 398.183C969.003 414.533 955.516 419.42 940.276 426.299C971.339 445.498 1013.71 487.033 1026.31 522.707C1029.49 531.704 1022.34 552.455 1016.84 560.302L1014.42 563.987L1014.75 564.876L1015.83 565.05C1028.89 564.852 1078.02 559.55 1090.09 556.272C1096.99 555.018 1118.66 549.811 1117.59 541.228C1109.42 529.401 1049.74 529.7 1039.16 511.868C1027.17 490.444 1098.2 490.694 1104.53 487.203L1104.82 485.947C1103.18 483.841 1101.36 481.642 1099.97 479.382C1105.48 481.25 1117.01 483.887 1118.23 490.321C1113.11 501.429 1067.93 500.452 1059.48 506.148L1059.2 507.539C1067.57 518.779 1150.8 520.364 1151.26 548.222C1151.31 551.346 1146.62 556.566 1143.66 558.187C1105.89 578.916 1040.23 582.364 998.065 585.634C992.939 590.769 983.459 600.738 977.949 604.992C968.835 614.257 961.586 619.536 952.658 627.682L953.452 642.359C950.58 638.882 950.83 637.418 949.361 633.103C949.098 632.537 948.579 629.88 948.411 629.102C936.98 634.732 934.838 646.144 920.956 639.224C907.71 632.621 903.588 620.992 900.654 607.642C896.381 606.515 882.83 608.221 877.585 608.218C854.352 608.204 817.189 607.288 795.829 599.528C792.142 632.869 799.4 675.923 798.014 708.675L798.55 712.856L797.738 714.715C796.614 714.683 795.491 714.645 794.368 714.602C794.432 709.785 793.966 702.848 793.77 697.883C793.859 685.765 792.912 671.562 792.621 659.159C767.67 656.897 737.936 652.353 715.758 639.747C712.329 637.797 707.408 632.895 707.134 628.874C706.156 614.496 725.728 608.711 736.449 605.059C754.591 598.972 773.567 596.883 792.338 594.53C792.241 591.089 792.831 585.669 793.112 582.092C795.153 565.579 799.582 548.612 803.196 532.337C795.834 540.419 788.584 546.913 778.271 550.954C776.788 550.134 773.58 550.277 771.724 550.222L770.919 549.039C765.239 549.827 760.958 550.094 755.2 549.614C724.524 540.717 709.537 526.388 689.568 502.79L688.364 500.71C689.152 498.77 697.915 492.262 701.556 487.607C700.553 487.632 701.061 487.729 700.103 486.955L700.33 483.129C702.209 479.173 702.855 477.599 704.082 473.408L704.736 475.115C707.221 474.156 704.459 472.081 708.099 469.652C710.873 470.046 712.518 471.331 714.866 472.804C715.931 471.976 716.423 470.83 717.1 469.636L717.553 469.936C727.114 476.178 748.775 487.583 759.874 493.514C762.587 489.653 771.891 479.301 775.43 475.088C792.109 455.229 807.31 434.211 829.565 420.302C829.328 418.689 829.614 418.512 830.357 417.053C834.287 418.457 843.122 413.336 848.465 411.645L849.582 412.581C850.997 408.757 853.549 403.875 854.51 400.392L852.872 399.585C843.893 397.361 837.001 392.966 830.307 386.684C826.991 383.805 820.866 374.472 820.132 370.11C819.93 366.725 819.734 365.915 821.657 362.963C820.301 349.557 819.281 330.253 821.225 317.131C820.246 315.728 819.668 315.621 818.128 314.912C816.161 324.414 817.351 331.069 816.163 338.81L815.52 343.516C806.531 334.402 798.609 316.213 798.308 303.067C798.045 291.58 801.981 279.233 810.049 270.556C811.304 269.206 819.446 264.6 820.499 263.295C823.089 260.088 822.039 257.849 825.779 253.96Z"/><path fill="#F56356" d="M809.403 489.954C810.719 479 812.593 456.45 818.059 447.668L819.304 447.415C819.91 451.545 817.731 457.561 816.963 461.814C812.945 484.057 811.531 506.686 807.768 528.991C804.669 547.359 798.394 565.807 797.029 584.396C832.403 593.724 871.545 592.797 908.119 591.191C915.152 579.327 924.644 577.961 937.671 576.208C939.387 573.889 942.092 570.699 942.775 568.059L945.539 566.099C938.849 539.744 937.621 533.093 939.661 505.37L937.373 503.774C935.213 497.3 918.738 494.781 920.176 489.335C928.671 489.338 954.823 511.617 961.371 518.12C963.996 520.736 966.44 523.528 968.687 526.477C971.047 522.46 972.723 519.452 975.722 515.807L976.888 515.525C977.676 519.386 969.035 531.474 966.538 535.734C959.659 547.468 952.202 568.374 941.224 576.436C957.839 578.275 968.414 584.309 977.911 598.275C985.826 594.034 992.724 586.425 998.666 579.624C999.855 580.782 1000.51 582.018 1002.41 581.399C1002.46 579.71 1008.98 571.17 1010.52 569C1014.39 568.748 1017.68 568.425 1021.53 567.938L1022.15 567.272C1024.38 567.027 1026.2 566.419 1028.35 565.808C1022.9 566.16 1021.2 566.08 1015.83 565.05C1028.89 564.852 1078.02 559.55 1090.09 556.272C1096.99 555.018 1118.66 549.811 1117.59 541.228C1109.42 529.401 1049.74 529.7 1039.16 511.868C1027.17 490.444 1098.2 490.694 1104.53 487.203L1104.82 485.947C1103.18 483.841 1101.36 481.642 1099.97 479.382C1105.48 481.25 1117.01 483.887 1118.23 490.321C1113.11 501.429 1067.93 500.452 1059.48 506.148L1059.2 507.539C1067.57 518.779 1150.8 520.364 1151.26 548.222C1151.31 551.346 1146.62 556.566 1143.66 558.187C1105.89 578.916 1040.23 582.364 998.065 585.634C992.939 590.769 983.459 600.738 977.949 604.992C968.835 614.257 961.586 619.536 952.658 627.682L953.452 642.359C950.58 638.882 950.83 637.418 949.361 633.103C949.098 632.537 948.579 629.88 948.411 629.102C936.98 634.732 934.838 646.144 920.956 639.224C907.71 632.621 903.588 620.992 900.654 607.642C896.381 606.515 882.83 608.221 877.585 608.218C854.352 608.204 817.189 607.288 795.829 599.528C792.142 632.869 799.4 675.923 798.014 708.675L798.55 712.856L797.738 714.715C796.614 714.683 795.491 714.645 794.368 714.602C794.432 709.785 793.966 702.848 793.77 697.883C793.859 685.765 792.912 671.562 792.621 659.159C767.67 656.897 737.936 652.353 715.758 639.747C712.329 637.797 707.408 632.895 707.134 628.874C706.156 614.496 725.728 608.711 736.449 605.059C754.591 598.972 773.567 596.883 792.338 594.53C792.241 591.089 792.831 585.669 793.112 582.092C795.153 565.579 799.582 548.612 803.196 532.337C795.834 540.419 788.584 546.913 778.271 550.954C776.788 550.134 773.58 550.277 771.724 550.222L770.919 549.039C783.805 544.984 796.646 537.117 803.436 524.952C807.318 517.996 808.06 501.832 808.883 493.228C799.401 486.662 794.736 480.699 787.856 471.616L787.876 469.804C790.357 469.396 805.739 486.769 809.403 489.954Z"/><path fill="#FEFEFE" d="M1042.62 512.128C1041.51 509.852 1040.93 508.972 1041.33 506.426C1045.92 497.181 1081.51 494.745 1091.61 492.836C1096.26 491.958 1108.54 489.438 1112.82 489.549L1113.65 490.526C1110.87 497.923 1062.57 495.758 1054 506.334C1053.61 507.916 1053.34 508.318 1054.2 509.812C1060.08 519.982 1152.5 527.254 1147.55 548.426C1146.62 552.404 1141.83 555.435 1138.47 557.27C1111.96 571.736 1058 576.737 1026.51 579.605C1018.6 580.326 1010.19 580.178 1002.41 581.399C1002.46 579.71 1008.98 571.17 1010.52 569C1014.39 568.748 1017.68 568.425 1021.53 567.938L1022.15 567.272C1024.38 567.027 1026.2 566.419 1028.35 565.808C1022.9 566.16 1021.2 566.08 1015.83 565.05C1028.89 564.852 1078.02 559.55 1090.09 556.272C1096.99 555.018 1118.66 549.811 1117.59 541.228C1109.42 529.401 1049.74 529.7 1039.16 511.868L1039.58 511.509L1042.62 512.128Z"/><path fill="#F3695D" d="M1039.16 511.868L1039.58 511.509L1042.62 512.128C1051.3 516.357 1056.09 518.427 1065.81 521.883C1081.69 527.527 1113.62 526.929 1122.9 541.489C1127.01 547.92 1107.45 555.803 1103.02 557.036C1102.12 557.288 1101.21 557.53 1100.29 557.761C1096.97 557.164 1093.45 556.734 1090.09 556.272C1096.99 555.018 1118.66 549.811 1117.59 541.228C1109.42 529.401 1049.74 529.7 1039.16 511.868Z"/><path fill="#F56356" d="M1090.09 556.272C1093.45 556.734 1096.97 557.164 1100.29 557.761C1086.77 562.002 1036.07 568.225 1021.53 567.938L1022.15 567.272C1024.38 567.027 1026.2 566.419 1028.35 565.808C1022.9 566.16 1021.2 566.08 1015.83 565.05C1028.89 564.852 1078.02 559.55 1090.09 556.272Z"/><path fill="#FEFEFE" d="M925.257 590.584C920.658 592.154 916.917 594.584 912.406 596.08C909.332 577.453 960.109 570.68 974.649 600.962C972.416 604.17 969.76 606.677 967.393 609.886C960.878 615.188 954.234 620.328 947.467 625.303C942.063 628.951 933.433 638.463 927.277 636.982L926.574 635.745C928.101 629.327 939.538 622.193 945.345 611.67C936.538 617.05 922.991 634.016 919.327 634.958C912.267 631.139 918.084 625.213 922.014 622.151C928.099 617.41 931.573 613.119 935.151 606.358C928.036 610.489 915.981 626.007 911.061 626.39C909.566 623.233 909.141 622.384 908.34 618.926C914.799 611.139 921.374 609.444 929.092 598.637C920.304 602.758 911.235 612.94 906.31 614.16C904.684 612.463 905.254 613.453 904.749 610.979C906.21 603.755 918.849 597.011 925.257 590.584Z"/><path fill="#FEFEFE" d="M939.661 505.37C944.001 505.855 960.493 521.776 963.84 525.919C964.62 526.887 965.343 527.9 966.008 528.951C963.037 534.342 948.819 564.876 945.539 566.099C938.849 539.744 937.621 533.093 939.661 505.37Z"/><path fill="#F3695D" d="M967.393 609.886L968.432 610.123C971.344 608.092 973.493 606.549 975.953 603.891L976.287 603.525L977.949 604.992C968.835 614.257 961.586 619.536 952.658 627.682L953.452 642.359C950.58 638.882 950.83 637.418 949.361 633.103C949.098 632.537 948.579 629.88 948.411 629.102C948.361 627.813 947.247 627.944 947.467 625.303C954.234 620.328 960.878 615.188 967.393 609.886Z"/><path fill="#F3695D" d="M793.77 697.883L794.727 694.747C796.68 699.456 796.418 704.781 798.014 708.675L798.55 712.856L797.738 714.715C796.614 714.683 795.491 714.645 794.368 714.602C794.432 709.785 793.966 702.848 793.77 697.883Z"/><path fill="#F3695D" d="M793.112 582.092C794.934 586.382 796.235 593.276 794.029 597.564L793.083 597.493C792.937 596.87 792.548 595.011 792.338 594.53C792.241 591.089 792.831 585.669 793.112 582.092Z"/><path fill="#FEFEFE" d="M788.039 598.978C789.21 598.605 789.874 598.823 791.11 598.982C792.868 602.389 791.828 610.836 791.557 615.044C779.918 615.017 776.985 614.86 773.461 626.597C780.647 631.135 783.571 630.946 791.894 631.083L792.001 654.429C771.733 653.685 761.025 651.477 741.178 646.293C721.676 640.751 692.166 628.145 726.367 613.115C746.487 604.272 766.3 601.126 788.039 598.978Z"/><path fill="#F3695D" d="M746.175 626.701C749.909 627.728 751.239 631.813 755.175 634.425C759.443 637.257 769.506 638.044 771.846 641.112C762.942 641.116 746.338 638.472 746.175 626.701Z"/><path fill="#F56356" d="M731.643 621.387C734.244 621.366 738.832 621.03 740.641 623.032C739.06 624.544 737.859 624.323 735.51 624.507C732.63 624.64 726.967 625.302 724.969 623.062C727.193 621.588 728.961 621.673 731.643 621.387Z"/><path fill="#F56356" d="M759.595 611.354C761.556 611.173 762.765 610.795 764.368 611.85C762.718 613.614 761.694 613.519 759.191 614.346C758.166 614.865 757.561 614.999 756.477 615.339C756.82 613.501 758.15 612.675 759.595 611.354Z"/><path fill="#FEFEFE" d="M796.547 587.023C812.856 596.486 887.636 596.652 909.349 594.305C908.517 596.781 907.668 599.251 906.799 601.715C895.403 610.616 810.917 600.806 795.892 596.649L796.547 587.023Z"/><path fill="#FEFEFE" d="M782.768 618.057C796.192 617.969 793.411 627.538 788.819 627.872C785.033 627.331 779.787 627.522 778.749 623.473C779.567 620.833 780.81 619.938 782.768 618.057Z"/><path fill="#FEFEFE" d="M825.779 253.96C837.256 240.209 855.394 249.959 869.904 251.584C876.756 252.351 884.151 250.454 890.982 249.923C927.824 247.667 953.713 276.036 956.434 310.912C957.566 317.382 957.091 336.275 957.09 343.776C958.283 352.45 959.228 358.571 961.901 367.02L962.09 367.406C967.909 379.11 979.867 385.303 976.292 398.183L975.421 396.864L972.493 397.514C966.274 411.392 948.841 418.375 935.416 423.303C921.574 417.841 915.297 413.274 899.309 408.383C899.643 401.672 899.334 393.843 899.213 387.037C909.85 379.476 912.095 374.761 916.947 363.189C919.882 362.854 923.132 362.498 925.979 361.743C931.16 360.326 935.548 356.875 938.147 352.174C942.129 344.908 942.756 333.31 933.599 329.397C927.051 326.598 921.827 329.273 915.753 331.775C913.999 328.928 911.964 326.068 910.06 323.301C915.047 322.354 920.999 321.386 924.949 318.018C922.549 315.658 916.179 318.628 912.876 318.875C887.585 320.772 860.833 307.893 842.334 291.251C840.57 289.664 834.736 279.88 832.965 277.07L832.011 276.967L831.445 278.27C831.626 281.53 833.856 285.601 835.292 288.682C834.699 289.11 834.112 289.545 833.53 289.986C825.372 296.18 819.533 304.643 818.128 314.912C816.161 324.414 817.351 331.069 816.163 338.81L815.52 343.516C806.531 334.402 798.609 316.213 798.308 303.067C798.045 291.58 801.981 279.233 810.049 270.556C811.304 269.206 819.446 264.6 820.499 263.295C823.089 260.088 822.039 257.849 825.779 253.96Z"/><path fill="#F56356" d="M825.779 253.96C837.256 240.209 855.394 249.959 869.904 251.584C876.756 252.351 884.151 250.454 890.982 249.923C927.824 247.667 953.713 276.036 956.434 310.912L955.464 311.483C952.651 310.783 956.053 309.739 952.295 306.227C947.01 289.269 944.641 277.459 929.556 265.215C907.557 247.359 884.383 258.651 860.353 254.002C849.059 251.817 845.852 250.411 833.83 251.955C830.706 251.117 830.616 253.877 825.779 253.96Z"/><path fill="#F3695D" d="M825.779 253.96C830.616 253.877 830.706 251.117 833.83 251.955C827.634 256.551 827.26 257.228 824.982 264.627C813.817 272.83 805.223 279.266 802.748 294.166C799.987 310.78 807.818 325.222 816.163 338.81L815.52 343.516C806.531 334.402 798.609 316.213 798.308 303.067C798.045 291.58 801.981 279.233 810.049 270.556C811.304 269.206 819.446 264.6 820.499 263.295C823.089 260.088 822.039 257.849 825.779 253.96Z"/><path fill="#F3695D" d="M956.866 363.895C958.743 364.56 958.995 365.119 960.252 366.639L961.901 367.02L962.09 367.406C967.909 379.11 979.867 385.303 976.292 398.183L975.421 396.864L972.493 397.514C974.3 382.009 961.417 381.125 956.866 363.895Z"/><path fill="#F3695D" d="M952.295 306.227C956.053 309.739 952.651 310.783 955.464 311.483L956.434 310.912C957.566 317.382 957.091 336.275 957.09 343.776L955.109 340.261L954.406 340.383C954.273 342.765 954.301 345.631 953.522 347.815C951.945 335.669 953.58 320.438 952.295 306.227Z"/><path fill="#F56356" d="M953.522 347.815C954.301 345.631 954.273 342.765 954.406 340.383L955.109 340.261L957.09 343.776C958.283 352.45 959.228 358.571 961.901 367.02L960.252 366.639C958.995 365.119 958.743 364.56 956.866 363.895C954.933 359.673 954.12 352.54 953.522 347.815Z"/><path fill="#FEFEFE" d="M837.019 290.538C855.717 310.112 878.803 319.459 905.054 323.632C910.115 328.674 910.644 331.362 916.975 335.017C921.754 332.991 927.048 330.054 932.165 332.481C939.356 335.893 936.725 346.984 934.629 352.772C927.213 359.649 924.169 358.89 914.123 358.66C910.719 371.149 907.579 377.969 895.868 384.504C896.159 394.408 898.493 408.86 891.405 416.39C881.265 427.161 850.526 434.183 855.33 409.578L854.042 409.506L853.768 410.301C853.412 411.321 853.129 411.883 852.629 412.856C851.049 412.965 851.117 412.971 849.582 412.581C850.997 408.757 853.549 403.875 854.51 400.392L852.872 399.585C843.893 397.361 837.001 392.966 830.307 386.684C826.991 383.805 820.866 374.472 820.132 370.11C819.93 366.725 819.734 365.915 821.657 362.963C820.301 349.557 819.281 330.253 821.225 317.131C824.094 303.858 827.163 300.126 837.019 290.538Z"/><path fill="#F3695D" d="M857.975 397.127C863.578 396.596 869.427 396.475 874.869 395.217C878.364 394.408 880.624 392.152 883.695 392.846L884.07 393.961C879.461 402.045 858.05 400.595 855.33 409.578L854.042 409.506L853.768 410.301C853.412 411.321 853.129 411.883 852.629 412.856C851.049 412.965 851.117 412.971 849.582 412.581C850.997 408.757 853.549 403.875 854.51 400.392L852.872 399.585L853.682 398.423C855.321 398.118 856.45 397.807 857.975 397.127Z"/><path fill="#F3695D" d="M834.695 385.268C842.182 391.498 848.478 394.729 857.975 397.127C856.45 397.807 855.321 398.118 853.682 398.423L852.872 399.585C843.893 397.361 837.001 392.966 830.307 386.684L834.695 385.268Z"/><path fill="#F56356" d="M820.132 370.11C819.93 366.725 819.734 365.915 821.657 362.963C824.728 373.333 827.049 377.563 834.695 385.268L830.307 386.684C826.991 383.805 820.866 374.472 820.132 370.11Z"/><path fill="#F3695D" d="M876.601 362.767C878.252 363.827 878.093 364.552 878.08 366.225C872.769 374.101 860.4 376.378 851.536 375.786C850.608 374.664 850.751 374.651 850.184 373.249C853.872 369.7 864.317 377.276 876.601 362.767Z"/><path fill="#F3695D" d="M847.764 334.267C851.54 337.643 845.172 345.85 845.061 349.832C844.989 352.393 848.294 353.873 847.676 357.11L846.123 357.988C844.295 356.177 841.731 354.003 839.77 352.237C842.042 347.009 844.86 338.633 847.764 334.267Z"/><path fill="#F3695D" d="M863.23 316.808C869.401 316.622 875.442 317.798 879.453 322.944L879.26 324.233C876.167 324.439 876.459 323.983 873.309 322.363C861.683 317.534 865.392 322.371 857.358 321.981L856.251 320.518L856.758 319.386C859.379 317.572 860.234 317.487 863.23 316.808Z"/><path fill="#F3695D" d="M868.758 331.368C875.462 334.588 872.698 341.569 867.601 345.188C860.598 341.597 864.175 335.146 868.758 331.368Z"/><path fill="#F3695D" d="M832.12 329.638L835.424 330.379C839.883 333.634 838.368 337.543 836.496 341.816C833.904 342.507 833.099 342.533 831.213 340.601C829.877 336.854 830.745 333.256 832.12 329.638Z"/><path fill="#F56356" d="M829.648 317.37C833.826 317.172 835.758 316.684 838.809 319.977L838.724 321.208C836.505 321.809 835.989 321.01 833.455 319.869C830.726 320.732 829.966 323.578 826.185 322.353C826.648 320.136 828.045 319.072 829.648 317.37Z"/><path fill="#F56356" d="M835.292 288.682C833.856 285.601 831.626 281.53 831.445 278.27L832.011 276.967L832.965 277.07C834.736 279.88 840.57 289.664 842.334 291.251C860.833 307.893 887.585 320.772 912.876 318.875C916.179 318.628 922.549 315.658 924.949 318.018C920.999 321.386 915.047 322.354 910.06 323.301C911.964 326.068 913.999 328.928 915.753 331.775C921.827 329.273 927.051 326.598 933.599 329.397C942.756 333.31 942.129 344.908 938.147 352.174C935.548 356.875 931.16 360.326 925.979 361.743C923.132 362.498 919.882 362.854 916.947 363.189C912.095 374.761 909.85 379.476 899.213 387.037C899.334 393.843 899.643 401.672 899.309 408.383C915.297 413.274 921.574 417.841 935.416 423.303C948.841 418.375 966.274 411.392 972.493 397.514L975.421 396.864L976.292 398.183C969.003 414.533 955.516 419.42 940.276 426.299C971.339 445.498 1013.71 487.033 1026.31 522.707C1029.49 531.704 1022.34 552.455 1016.84 560.302C1015.99 558.143 1016.32 558.848 1013.79 557.414C1022.25 541.881 1027.31 527.257 1017.56 511.045C998.548 479.468 969.447 450.333 939.082 429.532C930.852 423.893 908.199 414.954 898.87 412.11C894.043 421.075 886.695 425.693 877.116 428.462C863.205 432.482 854.161 428.767 850.111 414.755C815.169 428.523 801.993 450.313 778.268 478.119C773.067 484.216 767.329 491.509 761.472 496.806C765.757 500.789 777.985 512.068 774.839 518.65C773.843 518.586 767.843 508.522 765.507 505.869C750.942 489.331 732.29 484.7 714.866 472.804C715.931 471.976 716.423 470.83 717.1 469.636L717.553 469.936C727.114 476.178 748.775 487.583 759.874 493.514C762.587 489.653 771.891 479.301 775.43 475.088C792.109 455.229 807.31 434.211 829.565 420.302C829.328 418.689 829.614 418.512 830.357 417.053C834.287 418.457 843.122 413.336 848.465 411.645L849.582 412.581C851.117 412.971 851.049 412.965 852.629 412.856C853.129 411.883 853.412 411.321 853.768 410.301L854.042 409.506L855.33 409.578C850.526 434.183 881.265 427.161 891.405 416.39C898.493 408.86 896.159 394.408 895.868 384.504C907.579 377.969 910.719 371.149 914.123 358.66C924.169 358.89 927.213 359.649 934.629 352.772C936.725 346.984 939.356 335.893 932.165 332.481C927.048 330.054 921.754 332.991 916.975 335.017C910.644 331.362 910.115 328.674 905.054 323.632C878.803 319.459 855.717 310.112 837.019 290.538C827.163 300.126 824.094 303.858 821.225 317.131C820.246 315.728 819.668 315.621 818.128 314.912C819.533 304.643 825.372 296.18 833.53 289.986C834.112 289.545 834.699 289.11 835.292 288.682Z"/><path fill="#F3695D" d="M937.373 503.774L939.661 505.37C937.621 533.093 938.849 539.744 945.539 566.099L942.775 568.059C937.852 551.366 931.611 520.436 937.373 503.774Z"/><path fill="#F3695D" d="M1013.79 557.414C1016.32 558.848 1015.99 558.143 1016.84 560.302L1014.42 563.987L1014.75 564.876L1015.83 565.05C1021.2 566.08 1022.9 566.16 1028.35 565.808C1026.2 566.419 1024.38 567.027 1022.15 567.272L1021.53 567.938C1017.68 568.425 1014.39 568.748 1010.52 569C1008.98 571.17 1002.46 579.71 1002.41 581.399C1000.51 582.018 999.855 580.782 998.666 579.624C1003.95 572.39 1008.99 564.982 1013.79 557.414Z"/><path fill="#F56356" d="M704.082 473.408L704.736 475.115C707.221 474.156 704.459 472.081 708.099 469.652C709.004 475.587 705.3 483.16 701.556 487.607C700.553 487.632 701.061 487.729 700.103 486.955L700.33 483.129C702.209 479.173 702.855 477.599 704.082 473.408Z"/><path fill="#F3695D" d="M602.762 352.759C653.482 348.371 668.197 423.478 633.241 434.504C608.586 441.316 583.558 410.181 584.933 387.35C585.868 371.828 587.923 360.185 602.762 352.759Z"/><path fill="#FEFEFE" d="M609.654 373.926C626.907 382.864 632.557 395.332 634.039 414.05C630.689 412.785 622.167 407.034 619.48 404.606C610.209 396.231 610.1 385.557 609.654 373.926Z"/><defs><linearGradient id="gradient_0" gradientUnits="userSpaceOnUse" x1="615.21307" y1="392.86615" x2="592.23834" y2="397.19156"><stop offset="0" stop-color="#FDEAEB"/><stop offset="1" stop-color="white"/></linearGradient></defs><path fill="url(#gradient_0)" d="M604.882 357.18C604.958 359.033 598.739 364.813 596.897 371.926C591.565 392.514 598.238 410.706 615.179 423.411C617.869 425.428 623.924 427.648 625.057 429.574L623.05 430.013C622.007 429.742 620.969 429.453 619.936 429.145C589.882 420.126 577.51 370.907 604.882 357.18Z"/><path fill="#FEFEFE" d="M533.143 287.191C542.589 287.19 538.17 291.255 540.681 296.925C542.477 300.981 550.588 297.123 552.239 301.843C554.226 307.522 547.486 308.593 545.895 313.951C546.259 319.257 551.33 318.915 550.098 324.542C544.646 330.133 543.389 323.853 537.157 326.252C534.815 327.154 532.465 333.839 529.257 334.846C525.536 336.016 525.688 328.559 521.405 326.886C518.604 325.793 513.802 328.616 510.935 329.948C514.499 333.429 517.721 334.975 517.059 340.227C507.883 351.503 519.877 351.403 523.163 357.425C522.933 364.236 516.934 363.447 511.626 364.985C506.844 370.339 513.64 371.688 510.401 378.773C501.23 385.322 501.451 365.361 484.972 380.845C482.418 381.705 481.677 381.212 479.65 380.318C477.629 376.933 478.996 376.237 478.198 372.08C475.608 358.574 466.844 367.264 461.474 363.423C456.102 350.836 479.423 352.784 465.851 339.262C463.942 337.36 465.837 331.311 469.241 329.345C478.704 327.889 481.733 339.706 486.073 321.418C489.281 318.085 493.344 319.111 497.164 321.044C499.029 322.916 499.389 333.682 507.507 328.767C509.062 324.644 509.365 319.831 508.78 315.481C505.531 310.689 501.573 314.64 501.149 307.51C504.405 301.932 508.153 305.035 512.623 300.445C513.512 297.77 512.249 294.71 511.54 291.54C512.338 288.833 511.673 289.768 514.16 288.097C518.587 287.264 522.375 290.343 526.044 292.746C529.102 290.873 530.482 289.566 533.143 287.191Z"/><path fill="#F3695D" d="M491.074 339.603C495.219 338.981 499.377 340.644 501.95 343.954C504.523 347.263 505.111 351.703 503.487 355.568C501.864 359.433 498.282 362.122 494.118 362.6C487.832 363.322 482.128 358.871 481.298 352.597C480.467 346.324 484.817 340.542 491.074 339.603Z"/><path fill="#F3695D" d="M525.398 302.195C529.805 300.772 534.548 303.091 536.132 307.445C537.715 311.798 535.571 316.624 531.28 318.366C528.361 319.551 525.027 319.047 522.59 317.05C520.152 315.054 518.999 311.885 519.585 308.789C520.17 305.692 522.4 303.163 525.398 302.195Z"/><path fill="#FEFEFE" d="M537.429 336.006C539.172 335.974 542.159 335.867 543.44 336.825C548.797 340.836 554.339 336.935 557.005 338.199C558.47 341.039 558.609 344.881 558.97 348.158C561.869 350.17 564.783 351.73 565.857 355.032C564.516 358.302 561.623 358.443 558.789 361.066C553.318 366.127 558.618 366.013 558.208 371.074C556.149 372.966 554.908 372.899 552.128 373.384C550.175 371.368 549.376 369.767 546.511 369.179C541.248 370.455 543.183 374.153 536.682 373.278C534.795 371.248 535.258 370.141 534.842 366.875C532.738 364.118 531.543 364.251 527.684 363.33L526.967 361.866C527.364 359.048 528.592 357.866 530.297 355.557C528.86 352.403 526.527 348.291 527.615 345.136C534.604 342.177 534.254 343.058 537.429 336.006Z"/><path fill="#F3695D" d="M542.11 348.38C544.217 347.309 546.744 347.5 548.666 348.875C550.588 350.25 551.585 352.581 551.252 354.922C550.919 357.262 549.312 359.222 547.082 360.006C543.935 361.114 540.468 359.589 539.156 356.521C537.844 353.453 539.136 349.892 542.11 348.38Z"/><path fill="#FEFEFE" d="M503.689 257.177C519.046 256.379 530.289 257.898 544.27 264.132C574.147 277.451 591.667 308.607 588.459 340.952C587.515 350.47 586.593 355.53 581.777 363.459L580.265 363.833C589.392 341.702 585.277 311.894 571.719 292.701C558.423 273.88 540.606 263.9 518.432 259.883C511.943 258.901 509.718 258.793 503.277 258.903L503.689 257.177Z"/><path fill="#FEFEFE" d="M647.645 461.478C654.872 461.32 675.252 459.077 679.503 465.023C679.342 467.704 679.49 466.776 677.824 469.248C670.39 469.695 651.044 472.296 646.362 466.702C645.978 464.142 646.328 463.892 647.645 461.478Z"/><path fill="#FEFEFE" d="M661.912 448.208C665.716 448.095 677.705 447.048 675.523 453.838C671.492 457.569 667.762 456.858 662.286 456.914C657.028 457.043 650.314 458.308 647.479 453.072L648.137 451.401C652.498 447.692 656.195 448.35 661.912 448.208Z"/><path fill="#FEFEFE" d="M654.096 474.277C659.918 473.985 676.317 471.922 680.291 476.256C681.03 479.175 680.947 480.6 678.167 481.809C672.382 481.923 652.944 483.707 650.482 477.83C651.743 475.266 651.362 476.057 654.096 474.277Z"/><path fill="#FEFEFE" d="M657.628 486.181C663.782 486.088 675.563 484.75 679.942 488.572C680.958 491.358 680.641 490.494 679.949 493.845C676.377 493.877 672.805 493.887 669.233 493.874C665.071 493.85 660.558 493.979 657.516 490.908C656.75 488.07 656.805 489.273 657.628 486.181Z"/><path fill="#FEFEFE" d="M471.352 531.95C475.751 531.973 479.235 532.882 482.479 536.145C482.721 537.807 482.882 537.051 481.948 538.479C476.634 539.903 480.969 537.448 473.304 538.24C470.46 540.361 468.902 542.211 465.271 541.408C463.515 537.148 468.125 533.93 471.352 531.95Z"/><path fill="#FEFEFE" d="M652.681 437.358C656.19 437.099 663.981 436.045 664.926 440.537C663.933 442.432 662.966 442.57 660.881 443.516C657.36 444.263 651.936 445.219 649.465 442.317C650.24 439.27 650.311 439.901 652.681 437.358Z"/><path fill="#FBDBDA" d="M566.748 388.29L569.293 385.883L569.968 386.376C570.225 390.667 563.777 398.622 559.641 399.108L559.513 397.003C562.704 393.678 564.288 392.124 566.748 388.29Z"/><path fill="#F3695D" d="M487.259 261.451L486.732 260.563L487.19 259.26C491.69 256.595 498.424 257.131 503.689 257.177L503.277 258.903C497.074 259.557 493.367 259.923 487.259 261.451Z"/><path fill="#F8A8A2" d="M580.265 363.833L581.777 363.459C579.751 370.892 578.541 373.482 574.21 379.867C576.263 374.374 578.345 369.477 580.265 363.833Z"/><path fill="#FBDBDA" d="M528.936 418.845C531.252 418.49 530.853 418.209 532.756 418.936C531.844 420.648 531.718 420.216 529.368 421.183C526.586 421.144 525.956 421.302 523.476 420.245C524.954 418.976 526.696 419.146 528.936 418.845Z"/><path fill="#FBDBDA" d="M544.354 415.667L545.794 415.803L546.042 416.638C544.026 418.393 542.716 418.668 540.223 419.576L538.892 418.089C540.344 416.304 541.74 416.423 544.354 415.667Z"/><path fill="#F8A8A2" d="M552.116 410.647L553.353 410.987L553.61 411.802L550.359 414.324L548.642 413.996L548.674 413.186L552.116 410.647Z"/><path fill="#FEFEFE" d="M795.829 599.528C817.189 607.288 854.352 608.204 877.585 608.218C882.83 608.221 896.381 606.515 900.654 607.642C903.588 620.992 907.71 632.621 920.956 639.224C934.838 646.144 936.98 634.732 948.411 629.102C948.579 629.88 949.098 632.537 949.361 633.103C950.83 637.418 950.58 638.882 953.452 642.359C954.172 644.296 954.371 647.675 954.134 649.695C992.093 653.921 1102.95 666.214 1126.2 695.4C1128.96 698.865 1130.56 703.329 1129.92 707.787C1129.12 713.281 1125.1 717.45 1120.75 720.53C1112.12 726.642 1100.57 730.532 1090.51 733.574C1070.62 739.587 1011.59 752.112 992.583 752.297C987.296 753.526 969.869 754.819 966.918 756.084C970.255 772.629 972.367 795.991 974.516 813.061C976.476 828.622 979.305 846.426 980.741 861.798C981.344 869.794 984.058 876.891 983.176 885.504C983.072 886.527 983.443 888.09 983.743 889.092C985.344 890.99 986.936 891.745 989.379 892.225C1007.52 895.783 1026.07 898.579 1044.24 901.791C1081.97 908.315 1119.67 915.086 1157.31 922.104C1162.92 923.114 1191.06 926.388 1192.81 930.208C1189.55 934.368 1162.45 940.745 1155.9 942.62L1075.57 965.598L1019.31 982.153C1012.7 984.061 992.004 990.297 986.485 990.558C963.029 991.669 927.119 984.07 903.766 979.63C877.741 974.785 851.771 969.645 825.862 964.212C757.785 950.639 689.959 935.839 622.415 919.819C593.406 912.685 561.89 904.92 533.48 895.856C509.762 888.395 447.367 868.085 445.919 837.277C443.259 780.641 570.464 762.653 606.566 756.331C668.801 745.891 731.396 737.735 794.228 731.877L795.109 730.709C794.991 725.335 794.744 719.964 794.368 714.602C795.491 714.645 796.614 714.683 797.738 714.715L798.55 712.856L798.014 708.675C799.4 675.923 792.142 632.869 795.829 599.528ZM1009.83 954.854C991.225 964.943 949.629 949.069 940.285 930.567C936.824 923.165 939.783 908.972 939.774 900.654C938.624 898.934 939.06 895.227 938.834 895.042C933.582 890.734 932.393 893.661 929.044 886.614C912.654 884.596 894.991 880.838 878.538 878.272C874.186 877.594 857.393 874.017 854.01 874.172L853.332 876.091C852.938 882.786 852.485 882.958 847.93 888.07C855.103 900.847 855.667 911.257 852.853 925.853C839.044 932.715 812.439 939.723 797.499 940.796C785.131 943.072 770.429 943.509 758.954 937.879C756.454 936.931 752.023 932.53 752.479 929.902C756.013 909.533 791.615 903.214 803.756 890.266C804.061 887.607 804.199 886.659 804.995 884.095L805.181 883.508C799.094 880.33 800.32 872.127 800.252 865.998C763.624 858.091 658.98 843.536 631.725 826.099C629.088 824.412 626.033 822.138 625.526 818.832C625.213 816.785 626.078 814.884 627.323 813.304C641.12 795.792 729.439 783.514 754.152 779.419C768.185 777.094 782.397 773.973 796.549 772.741C797.257 770.882 796.147 761.6 795.591 759.449C790.937 760.279 780.552 760.659 775.656 760.933C770.061 761.247 739.421 765.444 736.608 762.596C738.952 758.789 749.765 758.579 754.201 758.282C767.697 757.376 782.301 755.074 795.767 755.092L795.902 749.134C795.647 744.639 795.478 740.139 795.397 735.638C779.671 739.142 742.805 741.806 724.732 743.883C682.104 748.971 639.628 755.264 597.356 762.756C554.28 770.622 499.888 779.702 464.358 807.5C438.026 828.101 451.899 855.141 477.262 867.931C520.313 890.387 571.731 902.757 618.748 914.275C683.376 929.792 748.307 944.014 813.504 956.933C847.135 964.163 880.873 970.884 914.708 977.091C933.496 980.548 953.817 984.199 972.816 986.003C983.273 986.996 994.974 984.32 1005.15 981.465C1049.28 969.085 1093.04 955.324 1137.3 943.398C1152.74 939.237 1165.88 934.677 1181.8 931.112C1171.73 928.675 1159.47 927.175 1148.92 925.196C1122.77 920.165 1096.56 915.424 1070.3 910.972L1017.37 901.749C1011.1 900.636 988.836 895.262 984.345 897.868C992.8 907.79 1002.71 921.179 1013.84 928.243C1021.68 928.683 1044.21 930.383 1050.63 933.888L1051.55 935.254L1050.99 936.3C1046.69 936.717 1020.74 933.44 1015.44 932.205C1019.53 943.032 1021.43 948.282 1009.83 954.854ZM865.826 777.888C865.117 782.943 861.37 817.294 860.44 819.071C860.186 824.168 859.9 828.781 858.822 833.817C858.583 839.686 857.614 845.426 856.763 851.237C855.867 857.515 855.021 863.799 854.224 870.09C860.095 870.001 872.969 872.738 879.216 873.832L914.975 879.802C917.447 880.228 926.355 882.073 928.087 881.783C928.023 879.8 927.91 879.613 927.24 877.714C923.799 870.309 914.487 835.559 911.67 825.063C906.764 806.783 898.459 783.354 894.347 765.892C884.559 765.933 876.275 766.671 866.564 767.52C866.415 770.983 866.106 774.434 865.826 777.888ZM961.736 716.327C965.096 725.141 963.513 739.672 966.315 746.778C970.33 746.517 972.125 740.98 979.114 741.193C983.471 741.326 990.084 733.839 992.374 730.018L992.097 729.166C991.236 728.06 991.538 728.67 991.42 727.23C995.216 724.46 1012.61 722.499 1019.22 720.904C1016.37 715.136 1012.94 712.79 1008.09 708.694L1005.91 708.979C996.017 711.719 971.927 717.133 961.736 716.327ZM797.302 776.453L796.63 776.685C784.755 780.668 766.619 782.057 753.927 784.087C733.453 787.361 638.183 802.515 631.543 816.021C630.91 817.309 630.859 818.322 631.507 819.622C634.668 825.96 653.573 830.624 660.243 832.472C691.831 841.228 724.566 847.077 756.744 853.304C769.154 855.706 782.507 857.289 794.64 860.613C796.8 860.874 798.546 861.457 800.286 860.686C801.008 855.527 799.478 846.843 799.502 842.34C799.555 831.949 795.8 782.01 797.302 776.453Z"/><path fill="#F3695D" d="M746.688 881.443C749.295 881.206 748.343 880.928 750.396 882.233L750.58 883.588C749.543 885.005 748.511 885.692 746.862 886.288C722.047 895.253 696.731 902.859 672.216 912.664C670.527 913.097 669.594 912.26 668.636 911.134C670.995 906.346 700.574 898.102 707.104 895.49C719.901 890.371 733.822 886.556 746.688 881.443Z"/><path fill="#F3695D" d="M931.982 912.927C932.968 913.307 933.267 913.714 934.138 914.433L934.163 916.001C931.946 918.003 913.652 928.422 910.05 930.442C896.693 937.929 883.505 946.648 870.318 954.099C868.229 953.052 868.965 953.805 867.874 951.941C870.32 946.849 923.322 917.523 931.982 912.927Z"/><path fill="#F3695D" d="M623.678 854.758C626.094 855.006 625.486 854.603 627.143 855.929L627.004 857.362C623.634 860.248 567.025 871.812 558.178 872.969C556.065 872.979 556.575 873.286 555.105 872.271L555.353 871.026C561.012 866.878 612.846 857.266 623.678 854.758Z"/><path fill="#F3695D" d="M573.116 784.184C579.263 783.538 608.455 787.818 615.371 791.017C616.3 791.447 616.116 792.25 616.325 793.555C611.239 793.801 576.6 789.161 573.19 786.438L573.116 784.184Z"/><path fill="#F3695D" d="M532.685 805.346C534.032 805.483 533.742 805.538 535.04 806.209C535.641 809.713 530.988 812.932 529.031 817.699C526.569 823.697 531.194 837.869 530.369 840.919C522.117 841.394 523.657 826.465 524.353 821.293C525.315 814.134 526.783 809.774 532.685 805.346Z"/><path fill="#F3695D" d="M659.774 765.249C661.164 765.127 662.56 765.093 663.954 765.149C667.743 765.306 697.414 769.58 698.844 771.114L698.73 774.034C692.413 774.381 668.635 770.305 661.588 768.325C660.207 767.937 660.169 766.609 659.774 765.249Z"/><path fill="#F56356" d="M850.12 874.656L851.512 874.335L853.332 876.091C852.938 882.786 852.485 882.958 847.93 888.07C855.103 900.847 855.667 911.257 852.853 925.853C839.044 932.715 812.439 939.723 797.499 940.796C785.131 943.072 770.429 943.509 758.954 937.879C756.454 936.931 752.023 932.53 752.479 929.902C756.013 909.533 791.615 903.214 803.756 890.266C804.061 887.607 804.199 886.659 804.995 884.095L805.181 883.508C804.139 880.99 804.079 880.68 804.833 878.07C812.231 884.357 840.004 886.603 848.268 881.618C850.039 879.415 849.859 877.542 850.12 874.656Z"/><path fill="#FEFEFE" d="M773.798 938.176C768.805 937.115 760.742 935.638 757.564 931.457L757.405 929.86C759.291 929.419 757.894 929.567 759.21 930.007C782.875 937.917 817.654 927.879 841.506 921.45C843.962 920.788 847.564 919.172 849.97 919.847C849.213 929.808 800.388 936.89 790.447 937.913C786.691 937.562 777.437 937.711 773.798 938.176Z"/><path fill="#F3695D" d="M758.954 937.879C763.332 934.474 767.536 940.56 773.798 938.176C777.437 937.711 786.691 937.562 790.447 937.913C791.931 938.519 796.477 940.144 797.499 940.796C785.131 943.072 770.429 943.509 758.954 937.879Z"/><path fill="#FEFEFE" d="M807.138 891.4C826.919 900.041 826.714 897.916 846.867 898.055C850.416 901.051 850.701 909.206 849.627 913.512C849.222 915.134 844.129 917.71 842.454 918.18C826.235 922.73 772.951 934.772 757.687 927.675C756.107 922.498 777.312 908.447 783.249 910.784C786.696 912.141 789.32 914.163 793.196 914.922L794.297 914.053C793.455 910.212 787.139 910.14 785.677 906.778C791.27 902.868 798.125 909.63 802.623 908.562L802.917 907.538C801.107 905.524 795.41 903.123 792.521 901.577L792.512 900.763C801.179 898.979 808.21 905.713 812.551 903.672L811.792 902.114C809.169 899.647 804.979 898.813 801.436 897.785C804.351 895.2 804.909 894.591 807.138 891.4Z"/><path fill="#FEFEFE" d="M805.458 884.178C817.664 887.343 832.387 888.926 844.842 886.837L846.177 893.799C835.79 898.293 812.91 893.819 805.458 884.178Z"/><path fill="#FEFEFE" d="M984.345 897.868C992.8 907.79 1002.71 921.179 1013.84 928.243C1021.68 928.683 1044.21 930.383 1050.63 933.888L1051.55 935.254L1050.99 936.3C1046.69 936.717 1020.74 933.44 1015.44 932.205C1019.53 943.032 1021.43 948.282 1009.83 954.854C991.225 964.943 949.629 949.069 940.285 930.567C936.824 923.165 939.783 908.972 939.774 900.654C940.502 902.037 941.18 903.339 941.851 904.751L942.628 903.622L943.563 904.382C955.392 907.656 968.95 906.985 980.163 901.842L980.51 901.224L982.643 900.792L982.793 899.141L984.345 897.868Z"/><path fill="#F56356" d="M984.345 897.868C992.8 907.79 1002.71 921.179 1013.84 928.243C1021.68 928.683 1044.21 930.383 1050.63 933.888L1051.55 935.254L1050.99 936.3C1046.69 936.717 1020.74 933.44 1015.44 932.205C1019.53 943.032 1021.43 948.282 1009.83 954.854C991.225 964.943 949.629 949.069 940.285 930.567C936.824 923.165 939.783 908.972 939.774 900.654C940.502 902.037 941.18 903.339 941.851 904.751L942.628 903.622L943.563 904.382C942.73 909.043 942.503 916.364 942.478 921.019C954.046 937.943 987.156 952.321 1007.35 944.911C1010.18 943.872 1012.02 943.004 1013.43 940.217C1013.89 937.922 1013.53 936.865 1012.59 934.942C1002.75 914.951 980.083 929.024 976.096 927.574L976.309 926.023C980.432 921.729 991.586 921.442 997.501 921.05L997.961 920.355L996.856 918.989C983.52 913.313 973.819 924.605 970.915 924.601C967.796 916.491 987.006 915.727 990.618 913.99C990.147 911.938 990.577 912.684 988.52 911.261C979.605 909.629 967.825 918.002 964.449 916.204C964.605 910.338 982.764 910.267 986.359 905.801C984.658 903.027 983.48 902.005 980.163 901.842L980.51 901.224L982.643 900.792L982.793 899.141L984.345 897.868Z"/><path fill="#FEFEFE" d="M944.704 932.403L943.211 929.164L943.784 928.422C947.552 930.218 950.111 933.538 953.35 935.841C970.45 948.002 992.368 954.495 1012.64 946.585C1014.42 945.894 1013.96 945.462 1014.68 946.94C1012.51 951.673 1006.71 952.635 1002.08 953.551L1002.56 954.698C1005.1 954.59 1007.34 954.346 1009.83 954.854C991.225 964.943 949.629 949.069 940.285 930.567C941.845 931.024 941.766 931.105 943.004 932.204L944.704 932.403Z"/><path fill="#F3695D" d="M940.285 930.567C941.845 931.024 941.766 931.105 943.004 932.204L944.704 932.403L945.048 932.664C948.232 935.103 951.798 938.957 954.884 940.992C970.025 950.977 984.323 954.498 1002.08 953.551L1002.56 954.698C1005.1 954.59 1007.34 954.346 1009.83 954.854C991.225 964.943 949.629 949.069 940.285 930.567Z"/><path fill="#F3695D" d="M795.591 759.449C790.937 760.279 780.552 760.659 775.656 760.933C770.061 761.247 739.421 765.444 736.608 762.596C738.952 758.789 749.765 758.579 754.201 758.282C767.697 757.376 782.301 755.074 795.767 755.092L796.736 756.637L795.591 759.449Z"/><path fill="#FEFEFE" d="M954.134 649.695C992.093 653.921 1102.95 666.214 1126.2 695.4C1128.96 698.865 1130.56 703.329 1129.92 707.787C1129.12 713.281 1125.1 717.45 1120.75 720.53C1112.12 726.642 1100.57 730.532 1090.51 733.574C1070.62 739.587 1011.59 752.112 992.583 752.297C987.296 753.526 969.869 754.819 966.918 756.084C965.392 753.537 965.553 752.708 965.609 749.78C973.688 746.033 981.359 745.411 988.71 741.571C992.288 739.701 992.246 733.885 992.374 730.018L992.097 729.166C991.236 728.06 991.538 728.67 991.42 727.23C995.216 724.46 1012.61 722.499 1019.22 720.904C1016.37 715.136 1012.94 712.79 1008.09 708.694L1005.91 708.979C996.017 711.719 971.927 717.133 961.736 716.327L961.169 712.342C961.353 707.903 958.695 686.297 957.127 682.516L956.774 679.759C957.373 674.816 955.218 659.198 954.56 653.92C953.684 652.079 953.851 651.816 954.134 649.695Z"/><path fill="#FEFEFE" d="M956.774 679.759C967.126 678.967 1003.92 685.396 1013.15 692.476C1019.45 697.306 1015.4 702.378 1010.44 706.875C1010.67 712.551 1020.01 711.898 1021.04 719.123C1020.12 720.621 1020.72 720.062 1019.22 720.904C1016.37 715.136 1012.94 712.79 1008.09 708.694L1005.91 708.979C996.017 711.719 971.927 717.133 961.736 716.327L961.169 712.342C961.353 707.903 958.695 686.297 957.127 682.516L956.774 679.759Z"/><path fill="#F56356" d="M956.774 679.759C967.126 678.967 1003.92 685.396 1013.15 692.476C1019.45 697.306 1015.4 702.378 1010.44 706.875C1010.67 712.551 1020.01 711.898 1021.04 719.123C1020.12 720.621 1020.72 720.062 1019.22 720.904C1016.37 715.136 1012.94 712.79 1008.09 708.694L1005.91 708.979C1001.19 708.251 995.657 710.351 992.314 708.427C998.098 707.186 1009.9 705.145 1012.3 699.032C1010.24 688.301 967.547 683.867 957.127 682.516L956.774 679.759Z"/><path fill="#F3695D" d="M961.169 712.342C972.5 711.836 981.202 710.281 992.314 708.427C995.657 710.351 1001.19 708.251 1005.91 708.979C996.017 711.719 971.927 717.133 961.736 716.327L961.169 712.342Z"/><path fill="#F56356" d="M954.134 649.695C992.093 653.921 1102.95 666.214 1126.2 695.4C1128.96 698.865 1130.56 703.329 1129.92 707.787C1129.12 713.281 1125.1 717.45 1120.75 720.53C1112.12 726.642 1100.57 730.532 1090.51 733.574C1070.62 739.587 1011.59 752.112 992.583 752.297C991.69 751.625 988.6 750.636 986.832 749.688C1015.25 746.047 1098.45 733.267 1118.7 717.418C1122.34 714.563 1125.97 710.723 1126.36 705.868C1126.62 702.582 1125.02 699.57 1122.94 697.148C1100.59 671.209 990.215 656.319 954.56 653.92C953.684 652.079 953.851 651.816 954.134 649.695Z"/><path fill="#F56356" d="M1019.22 720.904C1021.88 722.15 1029.09 720.696 1032.37 720.229C1034.91 721.224 1035.52 721.338 1037.61 722.998C1029.02 724.158 998.969 729.295 992.097 729.166C991.236 728.06 991.538 728.67 991.42 727.23C995.216 724.46 1012.61 722.499 1019.22 720.904Z"/><path fill="#F3695D" d="M965.609 749.78C966.288 750.898 966.379 750.905 967.36 751.793C971.614 752.277 982.009 750.395 986.832 749.688C988.6 750.636 991.69 751.625 992.583 752.297C987.296 753.526 969.869 754.819 966.918 756.084C965.392 753.537 965.553 752.708 965.609 749.78Z"/><path fill="#F3695D" d="M1032.37 720.229C1035.68 719.563 1040.57 718.202 1043.5 720.515C1042.2 722.395 1039.85 722.632 1037.61 722.998C1035.52 721.338 1034.91 721.224 1032.37 720.229Z"/><path fill="#F3695D" d="M977.291 669.23C984.147 668.624 1034.99 677.026 1044.44 679.65C1047.17 680.407 1047.39 681.282 1048.28 683.318C1042.4 682.745 1024.33 678.983 1017.81 678.082C1012.28 677.317 980.614 672.812 977.761 671.603L977.291 669.23Z"/><path fill="#F56356" d="M1064.6 695.229C1064.9 695.504 1065.5 696.519 1065.76 696.916C1066.1 701.056 1066.76 710.638 1064.64 714.251C1061.44 711.245 1061.9 698.599 1064.6 695.229Z"/><path fill="#F3695D" d="M795.109 730.709C795.286 728.925 795.172 727.517 796.302 726.214C798.38 728.328 798.15 755.361 798.276 760.745C797.753 757.564 797.358 751.256 795.902 749.134C795.647 744.639 795.478 740.139 795.397 735.638C779.671 739.142 742.805 741.806 724.732 743.883C682.104 748.971 639.628 755.264 597.356 762.756C554.28 770.622 499.888 779.702 464.358 807.5C438.026 828.101 451.899 855.141 477.262 867.931C520.313 890.387 571.731 902.757 618.748 914.275C683.376 929.792 748.307 944.014 813.504 956.933C847.135 964.163 880.873 970.884 914.708 977.091C933.496 980.548 953.817 984.199 972.816 986.003C983.273 986.996 994.974 984.32 1005.15 981.465C1049.28 969.085 1093.04 955.324 1137.3 943.398C1152.74 939.237 1165.88 934.677 1181.8 931.112C1171.73 928.675 1159.47 927.175 1148.92 925.196C1122.77 920.165 1096.56 915.424 1070.3 910.972L1017.37 901.749C1011.1 900.636 988.836 895.262 984.345 897.868L982.793 899.141L982.643 900.792L980.51 901.224L980.163 901.842C968.95 906.985 955.392 907.656 943.563 904.382L942.628 903.622L941.851 904.751C941.18 903.339 940.502 902.037 939.774 900.654C938.624 898.934 939.06 895.227 938.834 895.042C933.582 890.734 932.393 893.661 929.044 886.614C912.654 884.596 894.991 880.838 878.538 878.272C874.186 877.594 857.393 874.017 854.01 874.172L853.332 876.091L851.512 874.335L850.12 874.656C849.859 877.542 850.039 879.415 848.268 881.618C840.004 886.603 812.231 884.357 804.833 878.07C804.079 880.68 804.139 880.99 805.181 883.508C799.094 880.33 800.32 872.127 800.252 865.998C763.624 858.091 658.98 843.536 631.725 826.099C629.088 824.412 626.033 822.138 625.526 818.832C625.213 816.785 626.078 814.884 627.323 813.304C641.12 795.792 729.439 783.514 754.152 779.419C768.185 777.094 782.397 773.973 796.549 772.741C797.32 774.366 797.612 774.662 797.302 776.453L796.63 776.685C784.755 780.668 766.619 782.057 753.927 784.087C733.453 787.361 638.183 802.515 631.543 816.021C630.91 817.309 630.859 818.322 631.507 819.622C634.668 825.96 653.573 830.624 660.243 832.472C691.831 841.228 724.566 847.077 756.744 853.304C769.154 855.706 782.507 857.289 794.64 860.613C796.906 862.069 797.511 862.651 800.157 862.749C801.748 862.055 802.207 860.08 802.676 858.464C802.704 860.06 802.407 862.795 803.277 863.641L804.4 861.348C804.49 862.472 804.307 866.07 804.276 867.389C822.58 872.768 831.329 873.351 850.325 871.559C850.512 866.933 851.356 859.017 852.417 854.542C853.579 852.676 853.827 852.157 855.378 850.644L856.763 851.237C855.867 857.515 855.021 863.799 854.224 870.09C860.095 870.001 872.969 872.738 879.216 873.832L914.975 879.802C917.447 880.228 926.355 882.073 928.087 881.783C928.023 879.8 927.91 879.613 927.24 877.714C927.637 875.572 927.125 873.432 926.8 871.237L927.134 871.929L927.006 871.109C927.83 873.16 928.268 874.071 929.917 875.54L932.407 878.122L931.705 881.31C941.442 883.476 942.783 882.839 952.194 882.819C957.986 882.808 977.807 878.244 979.827 879.4L981.38 884.141L981.686 884.08C983.086 879.203 976.069 869.823 980.741 861.798C981.344 869.794 984.058 876.891 983.176 885.504C983.072 886.527 983.443 888.09 983.743 889.092C985.344 890.99 986.936 891.745 989.379 892.225C1007.52 895.783 1026.07 898.579 1044.24 901.791C1081.97 908.315 1119.67 915.086 1157.31 922.104C1162.92 923.114 1191.06 926.388 1192.81 930.208C1189.55 934.368 1162.45 940.745 1155.9 942.62L1075.57 965.598L1019.31 982.153C1012.7 984.061 992.004 990.297 986.485 990.558C963.029 991.669 927.119 984.07 903.766 979.63C877.741 974.785 851.771 969.645 825.862 964.212C757.785 950.639 689.959 935.839 622.415 919.819C593.406 912.685 561.89 904.92 533.48 895.856C509.762 888.395 447.367 868.085 445.919 837.277C443.259 780.641 570.464 762.653 606.566 756.331C668.801 745.891 731.396 737.735 794.228 731.877L795.109 730.709Z"/><path fill="#FEFEFE" d="M978.419 891.133L981.394 897.981C981.837 898.185 982.279 898.39 982.722 898.594L982.793 899.141L982.643 900.792L980.51 901.224L980.163 901.842C968.95 906.985 955.392 907.656 943.563 904.382L942.628 903.622L944.285 901.622C943.045 899.198 942.754 897.46 943.587 894.968C945.973 893.822 962.422 894.285 966.962 893.534C971.68 892.754 973.311 892.56 978.419 891.133Z"/><path fill="#F3695D" d="M981.394 897.981C981.837 898.185 982.279 898.39 982.722 898.594L982.793 899.141L982.643 900.792L980.51 901.224L980.163 901.842C968.95 906.985 955.392 907.656 943.563 904.382L942.628 903.622L944.285 901.622C957.228 904.61 969.308 903.168 981.394 897.981Z"/><path fill="#FEFEFE" d="M931.705 881.31C941.442 883.476 942.783 882.839 952.194 882.819C957.986 882.808 977.807 878.244 979.827 879.4L981.38 884.141C970.739 892.298 948.861 893.075 936.363 888.419C933.399 887.315 932.513 884.042 931.705 881.31Z"/><path fill="#FEFEFE" d="M804.833 878.07C804.347 875.4 803.859 873.902 804.404 871.235C807.492 870.863 813.178 873.619 817.2 874.358C829.096 876.545 838.226 876.661 850.12 874.656C849.859 877.542 850.039 879.415 848.268 881.618C840.004 886.603 812.231 884.357 804.833 878.07Z"/><path fill="#F56356" d="M861.405 781.918C863.177 764.486 865.13 747.072 867.263 729.68C868.454 719.411 870.534 703.855 870.003 693.923C869.667 687.626 863.695 665.208 859.304 660.242C855.916 656.409 843.4 653.098 838.91 649.143L839.56 648.162C845.361 647.605 855.576 653.656 860.394 656.813C862.201 657.997 864.284 661.021 865.025 663.149C870.138 677.826 874.738 692.982 879.585 707.772C893.019 748.679 905.659 789.843 917.496 831.24C919.89 839.499 929.37 868.121 929.917 875.54C928.268 874.071 927.83 873.16 927.006 871.109L927.134 871.929L926.8 871.237C927.125 873.432 927.637 875.572 927.24 877.714C923.799 870.309 914.487 835.559 911.67 825.063C906.764 806.783 898.459 783.354 894.347 765.892C884.559 765.933 876.275 766.671 866.564 767.52C866.415 770.983 866.106 774.434 865.826 777.888C863.409 779.338 863.152 779.685 861.405 781.918Z"/><path fill="#FEFEFE" d="M873.199 700.487C874.895 702.204 879.732 718.525 879.906 721.819C876.924 721.609 874.999 721.428 872.828 723.245L872.901 724.711L874.062 725.656C876.946 725.527 878.379 724.657 880.949 723.459C884.708 735.556 888.56 747.625 892.504 759.664L892.51 760.944C890.13 762.586 871.462 763.13 866.547 763.687C869.052 745.419 872.983 718.453 873.199 700.487Z"/><path fill="#F3695D" d="M949.361 633.103C950.83 637.418 950.58 638.882 953.452 642.359C954.172 644.296 954.371 647.675 954.134 649.695C953.851 651.816 953.684 652.079 954.56 653.92C955.218 659.198 957.373 674.816 956.774 679.759L957.127 682.516C958.695 686.297 961.353 707.903 961.169 712.342L961.736 716.327C965.096 725.141 963.513 739.672 966.315 746.778C970.33 746.517 972.125 740.98 979.114 741.193C983.471 741.326 990.084 733.839 992.374 730.018C992.246 733.885 992.288 739.701 988.71 741.571C981.359 745.411 973.688 746.033 965.609 749.78C965.553 752.708 965.392 753.537 966.918 756.084C970.255 772.629 972.367 795.991 974.516 813.061C976.476 828.622 979.305 846.426 980.741 861.798C976.069 869.823 983.086 879.203 981.686 884.08L981.38 884.141L979.827 879.4C977.807 878.244 957.986 882.808 952.194 882.819C942.783 882.839 941.442 883.476 931.705 881.31L932.407 878.122C948.834 881.933 962.698 878.6 978.8 875.463C975.936 860.221 974.186 841.732 972.32 826.089L963.481 755.551L953.594 676.529C952.163 664.378 949.425 644.952 949.361 633.103Z"/><path fill="#F56356" d="M798.55 712.856C799.977 761.532 801.393 812.822 804.4 861.348L803.277 863.641C802.407 862.795 802.704 860.06 802.676 858.464C802.207 860.08 801.748 862.055 800.157 862.749C797.511 862.651 796.906 862.069 794.64 860.613C796.8 860.874 798.546 861.457 800.286 860.686C801.008 855.527 799.478 846.843 799.502 842.34C799.555 831.949 795.8 782.01 797.302 776.453C797.612 774.662 797.32 774.366 796.549 772.741C797.257 770.882 796.147 761.6 795.591 759.449L796.736 756.637L795.767 755.092L795.902 749.134C797.358 751.256 797.753 757.564 798.276 760.745C798.15 755.361 798.38 728.328 796.302 726.214C795.172 727.517 795.286 728.925 795.109 730.709C794.991 725.335 794.744 719.964 794.368 714.602C795.491 714.645 796.614 714.683 797.738 714.715L798.55 712.856Z"/><path fill="#F3695D" d="M861.405 781.918C863.152 779.685 863.409 779.338 865.826 777.888C865.117 782.943 861.37 817.294 860.44 819.071C860.186 824.168 859.9 828.781 858.822 833.817C858.583 839.686 857.614 845.426 856.763 851.237L855.378 850.644C853.827 852.157 853.579 852.676 852.417 854.542C852.971 846.819 854.938 834.453 856.103 826.769L856.299 825.813C856.598 817.764 859.802 789.706 861.405 781.918Z"/><path fill="#F3695D" d="M1240.92 648.436C1244.08 647.703 1253.78 648.067 1256.91 648.369C1278.79 650.425 1298.95 661.143 1312.91 678.139C1328.34 697.127 1335.54 721.506 1332.89 745.837C1330.16 771.139 1317.66 794.371 1298.04 810.577C1279.45 825.69 1255.67 833.999 1231.68 831.48C1174.63 827.776 1132.49 774.053 1155.26 717.705C1158.8 708.952 1163.01 703.083 1168.44 695.516C1166.23 690.303 1161.16 681.897 1162.21 676.644C1166.24 671.94 1178.86 677.417 1183.61 679.972C1199.87 662.403 1216.61 651.299 1240.92 648.436ZM1184.68 685.842C1177.37 681.692 1172.6 680.404 1164.62 678.217C1168.28 684.632 1170.52 688.683 1173.5 695.416C1169.22 702.477 1164.64 708.365 1161.19 715.916C1136.57 769.731 1172.73 817.146 1225.53 826.499C1250.58 829.327 1274.06 824.062 1294.04 808.208C1313.19 792.693 1325.52 770.3 1328.39 745.815C1331.16 722.984 1324.65 699.996 1310.31 682.016C1294.67 662.37 1269.08 650.015 1243.78 652.979C1221.1 654.302 1202.53 665.657 1187.74 682.331C1186.71 683.493 1185.69 684.664 1184.68 685.842Z"/><path fill="#F3695D" d="M1249.85 691.208C1267.5 690.631 1282.46 698.52 1283.18 717.758C1301.94 727.856 1306.68 746.249 1291.4 763.036C1282.24 773.09 1269.6 772.49 1257.32 772.112C1253.16 771.984 1252.23 772.838 1249.21 769.693L1249.37 768.373C1257.15 764.828 1272.74 770.214 1282.11 764.777C1293.13 758.382 1299.62 744.21 1293.51 732.328C1290.11 725.715 1285.36 724.246 1278.78 722.192C1278.79 719.332 1278.81 715.471 1278.09 712.736C1276.54 706.828 1272.68 701.793 1267.38 698.766C1259.9 694.568 1250.68 694.715 1242.59 696.891C1229.77 700.825 1228.7 707.421 1220.79 716.334C1219.58 717.701 1208.96 718.722 1205.8 720.486C1185.4 731.876 1185.13 766.353 1212.47 767.544C1221.17 767.887 1228.21 766.416 1236.83 769.148L1236.64 771.085C1227.77 772.922 1205.49 773.576 1197.83 767.666C1192.52 764.033 1188.12 758.025 1187.21 751.307C1184.07 728.059 1198.76 716.269 1218.9 712.327C1220.45 709.428 1222.26 706.68 1224.32 704.12C1231.38 695.491 1239.09 692.412 1249.85 691.208Z"/><path fill="#F3695D" d="M1241.25 738.41L1243.49 739.046C1246.3 742.516 1245.04 777.143 1245 784.308L1245.88 783.664C1248.04 782.088 1251.37 779.259 1254.04 779.68L1254.09 780.851C1251.61 785.43 1247.22 789.529 1243.56 793.334C1240.6 791.936 1232.8 783.583 1232.19 779.839L1233.36 779.275C1236.6 779.849 1238.39 781.955 1240.84 784.19C1240.81 774.203 1240.11 746.604 1241.25 738.41Z"/><path fill="#F3695D" d="M543.41 580.164C543.617 580.12 543.825 580.077 544.033 580.034C570.251 577.69 593.124 583.983 614.186 598.757C618.85 598.231 635.355 597.597 637.429 602.242C636.442 606.966 630.253 610.931 626.349 614.052C632.518 623.321 636.522 629.667 640.045 640.48C647.167 662.416 645.263 686.286 634.754 706.815C623.089 729.089 605.17 741.508 581.646 748.816C579.68 749.204 577.705 749.544 575.722 749.836C549.558 753.803 523.486 749.442 501.994 733.35C484.686 720.167 473.261 700.7 470.191 679.157C463.119 630.296 494.491 587.211 543.41 580.164ZM578.821 744.593C624.196 733.855 648.754 689.017 637.043 645.046C633.966 633.492 628.254 626.731 623.325 616.212C621.095 611.312 628.537 605.88 631.854 603.444C624.723 603.06 619.224 603.036 612.078 603.208C590.844 587.612 569.426 581.575 542.884 584.691C498.521 589.946 468.757 632.688 474.106 676.302C476.524 697.28 487.293 716.396 503.98 729.331C522.95 743.999 547.639 749.036 571.149 745.846C573.717 745.491 576.275 745.073 578.821 744.593Z"/><path fill="#F3695D" d="M555.223 611.716C567.697 612.02 572.017 614.601 580.759 622.884C583.14 622.961 587.32 622.941 589.484 623.657C608.479 629.944 612.416 650.849 599.075 664.613C602.055 665.917 605.509 667.556 607.868 669.706C612.816 674.215 622.387 688.069 611.465 691.483C606.512 693.031 595.011 692.151 589.45 691.934C593.007 700.212 592.889 705.621 595.282 714.033C583.153 714.615 567.23 714.161 554.813 714.167L518.51 714.089C518.508 706.863 521.291 698.601 524.287 692.109C512.816 692.458 483.785 696.657 498.944 676.292C503.801 669.766 507.696 666.974 515.65 665.548C510.249 660.315 506.946 655.266 506.653 647.452C506.419 641.035 508.794 634.797 513.236 630.161C518.997 624.158 524.687 622.868 532.548 622.782C539.943 615.493 544.768 612.505 555.223 611.716ZM523.855 709.723L585.937 709.692L588.786 709.746C594.636 702.705 577.285 686.246 572.535 682.022C566.963 687.848 562.252 691.452 553.906 691.886C547.316 692.229 541.429 687.835 540.485 681.283C532.132 686.922 526.743 694.101 524.792 704.125C524.441 705.984 524.129 707.851 523.855 709.723ZM561.454 634.766L562.944 633.325C566.38 633.784 566.727 637.88 567.27 640.971C572.122 644.67 580.006 651.315 584.983 653.829C585.127 642.61 583.902 632.997 575.65 624.363C570.588 619.019 563.546 616.001 556.186 616.021C555.218 616.02 554.25 616.04 553.283 616.082C534.223 621.403 528.101 634.681 529.201 653.69L529.971 653.181C543.227 644.279 536.947 639.13 562.095 640.245C562.298 637.738 562.064 637.266 561.454 634.766ZM499.357 687.215C507.59 687.418 515.825 687.549 524.06 687.609C528.376 687.319 534.105 679.777 539.615 676.263C533.197 671.796 523.623 668.882 516.011 669.137C504.517 673.751 502.979 675.413 499.357 687.215ZM545.332 679.041L543.12 680.593C547.432 686.768 556.281 689.693 562.967 685.389C565.376 683.28 567.76 681.131 570.297 679.178C559.563 681.419 556.386 681.467 545.332 679.041ZM588.563 687.703C596.058 687.533 604.489 687.531 611.901 687.092C610.046 679.272 605.753 668.87 595.801 669.132C587.152 673.014 580.833 671.977 572.846 676.405C576.159 679.276 584.932 688.085 588.563 687.703ZM583.679 626.739C591.639 644.617 591.745 651.37 583.161 669.133C586.569 668.102 589.195 667.573 592.021 665.444L592.496 665.093C592.81 664.841 593.124 664.59 593.438 664.338C598.501 660.131 601.649 655.857 602.286 649.039C602.833 643.71 601.2 638.387 597.759 634.282C593.698 629.468 589.629 627.988 583.679 626.739ZM548.176 673.868C552.843 675.336 556.471 676.34 561.445 675.846C577.587 669.593 581.648 643.598 553.923 644.567C550.675 645.149 545.674 645.769 543.131 647.918C535.46 654.401 542.627 668.395 548.176 673.868ZM526.244 627.129C507.78 635.953 505.018 653.04 522.253 664.915L530.501 667.277C526.087 658.175 523.973 650.41 524.998 640.008C525.473 635.197 530.048 631.012 529.55 627.16C529.148 627.003 526.847 627.117 526.244 627.129Z"/><path fill="#F3695D" d="M1187.52 295.133C1203.29 294.35 1217.86 297.185 1231.79 304.844C1251.79 315.849 1266.55 334.414 1272.77 356.388C1279.1 377.982 1276.42 401.22 1265.34 420.805C1254.69 440.017 1237.81 453.899 1216.56 459.931C1197.01 465.481 1170.96 463.652 1153.12 453.782C1144.61 448.855 1140.72 445.732 1133.57 438.968C1117.8 445.84 1103.8 454.317 1088.38 461.515C1087.35 461.997 1086.91 461.515 1086.1 461.003C1086.45 457.514 1090.5 454.836 1093.22 452.382C1103.61 442.993 1112.17 431.98 1119.59 420.164C1113.74 406.969 1110.34 401.394 1109.16 386.546C1107.45 363.946 1114.82 341.596 1129.64 324.453C1144.92 306.751 1164.15 296.907 1187.52 295.133ZM1124.79 420.216C1119.67 429.222 1110.99 439.893 1104.53 448.362C1114.54 442.84 1123.83 437.869 1134.65 434.054C1145.24 443.844 1152.54 449.345 1166.2 454.718C1203.34 464.4 1238.28 455.929 1259.65 421.635C1292.9 368.297 1254.38 299.528 1191.71 299.656C1167.94 300.956 1149.57 308.715 1133.55 326.776C1119.37 342.607 1112.01 363.397 1113.07 384.627C1113.9 398.854 1119.31 407.648 1124.79 420.216Z"/><path fill="#F3695D" d="M1228.71 333.442C1239.36 333.506 1245.32 333.087 1244.97 343.276C1244.94 343.963 1249.4 347.079 1249.41 349.634C1249.45 356.963 1249.36 364.265 1249.34 371.579C1249.15 389.033 1249.21 406.49 1249.52 423.943C1233.99 424.892 1213.9 423.47 1197.36 424.071C1195.37 425.417 1194.84 426.035 1192.54 426.205C1185.1 422.578 1167.49 423.914 1158.3 423.978C1152.19 424.048 1146.7 424.081 1140.58 423.803C1141.8 406.135 1141.11 388.753 1141.31 371.099C1141.4 363.429 1140.73 349.449 1142.59 342.467C1152.08 334.245 1181.91 341.705 1191.76 346.788C1204.6 337.612 1213.24 334.753 1228.71 333.442ZM1145.23 413.612C1158.66 408.452 1173.16 407.537 1186.46 413.967C1186.45 409.081 1186.45 405.828 1187.06 400.917C1183.89 397.703 1181.15 392.02 1180.2 391.422C1172.67 395.157 1170.01 397.138 1165.01 404.151L1163.22 404.535L1162.02 403.479C1162.03 397.935 1165.92 396.666 1168.4 393.047C1171.68 388.261 1179.96 390.212 1179.19 385.533C1176.89 371.55 1179.1 360.519 1188.77 349.742C1177.32 345.314 1165.36 342.738 1152.99 343.809C1150.18 344.117 1148.06 344.005 1145.95 345.738C1144.66 350.503 1145.32 404.51 1145.23 413.612ZM1196.79 413.062C1213.93 406.391 1228.76 408.741 1245.63 414.371C1245.62 406.648 1246.24 356.502 1244.44 351.556C1238.25 376.126 1232.62 392.543 1205.45 400.22C1199.98 401.764 1186.96 402.438 1191.02 413.484C1192.01 416.176 1194.86 414.15 1196.79 413.062ZM1188.99 396.94L1191.46 390.333C1199.02 374.041 1222.95 346.274 1238.06 338.976C1233.65 338.464 1227.9 337.605 1223.63 338.599C1210.56 340.192 1198.07 345.065 1189.67 355.678C1183.97 362.726 1181.39 371.786 1182.52 380.777C1183.42 387.459 1185.4 391.399 1188.99 396.94ZM1238.86 343.572C1234.4 346.041 1229.6 350.473 1225.82 354.002C1211.58 367.305 1200.58 378.636 1193.36 396.898C1193.71 398.183 1193.34 397.823 1194.15 398.439C1226.59 391.32 1237.71 378.13 1239.38 344.41L1238.86 343.572ZM1157.68 414.191C1150.98 415.783 1149.38 416.153 1143.93 420.172C1154.74 419.59 1164.27 419.457 1175.06 419.434C1180.46 419.459 1184.33 419.474 1189.75 420.095C1176.76 414.116 1172.18 413.508 1157.68 414.191ZM1195.44 419.397L1231.69 419.485C1235.64 419.556 1240.52 419.516 1244.38 419.889C1235.06 414.229 1222.93 411.708 1212.19 413.574C1204.78 414.839 1201.92 415.629 1195.44 419.397Z"/><path fill="#F56356" d="M860.634 77.5655C871.535 75.4854 886.368 80.8385 895.083 87.1287C906.797 95.7051 914.648 108.565 916.925 122.906C921.013 149.642 906.056 156.252 895.861 176.764C892.356 183.816 893.915 192.375 891.106 196.254C886.447 199.722 879.796 198.79 873.938 198.688L839.013 198.815C837.892 191.046 836.346 178.781 832.44 172.108C824.257 158.132 815.639 152.248 813.897 134.449C812.552 120.489 816.846 106.571 825.822 95.7979C834.833 84.9939 846.692 78.8271 860.634 77.5655ZM842.898 194.068C847.97 194.116 853.393 194.268 858.435 194.091C855.642 176.639 851.76 157.524 849.309 140.464C845.753 140.061 843.168 140.102 840.86 137.113C839.411 135.265 838.84 132.877 839.295 130.573C840.709 123.169 849.289 124.276 852.223 130.001C853.325 132.153 853.907 135.633 854.755 138.109C856.761 129.969 862.15 112.834 871.492 127.377C871.964 129.911 872.235 131.671 873.131 134.131L874.11 134.631C877.256 131.846 880.493 124 884.304 124.791C891.217 126.371 894.181 135.364 886.798 138.684C884.533 139.702 881.302 140.388 880.638 142.961C876.372 159.467 875.309 177.061 872.603 193.912C877.16 193.946 882.52 194.125 887.008 193.927C891.149 169.556 893.245 171.94 906.219 152.708C924.003 126.347 903.874 87.7121 872.299 82.739C867.565 82.0084 862.747 82.0093 858.014 82.7415C845.661 84.7061 834.606 91.5286 827.31 101.691C819.984 111.777 816.997 124.375 819.014 136.678C821.61 152.007 829.746 157.915 836.799 170.272C840.115 176.082 841.763 187.196 842.898 194.068ZM868.521 191.998C870.376 176.069 872.651 156.038 875.634 140.353C869.216 139.569 863.629 139.774 857.178 139.848L854.66 140.374C854.229 141.319 861.995 190.011 863.26 193.747C865.451 194.644 864.782 194.359 867.503 193.857C868.624 192.7 868.421 193.36 868.521 191.998Z"/><path fill="#F3695D" d="M677.667 201.992C688.022 201.853 755.448 200.55 759.918 203.644C764.931 210.724 763.468 232.21 763.446 241.894C763.411 256.814 765.904 265.484 749.248 267.224C749.215 271.568 749.875 278.486 747.106 281.439C744.941 281.01 745.559 281.069 743.684 279.261C742.003 277.645 739.899 275.909 738.114 274.356C735.216 276.461 730.703 280.805 728.121 280.452L727.071 279.066C726.567 274.259 731.801 269.402 734.558 264.344L734.182 263.324L732.27 263.727C731.823 264.22 729.237 266.874 728.931 266.869C722.345 266.755 676.282 269.308 674.464 264.257C670.661 253.697 672.374 220.988 672.661 207.852C672.723 205.019 675.596 203.351 677.667 201.992ZM728.289 262.34C721.77 254.753 717.598 245.195 726.982 237.244C730.46 234.284 735.002 232.887 739.541 233.38C751.082 234.704 753.264 245.018 751.907 254.525L751.398 255.102C747.088 259.921 740.9 262.241 738.653 267.749L739.01 269.25L744.013 272.252L744.673 271.885C744.735 268.817 744.556 266.676 745.961 263.903C749.362 261.879 753.636 262.273 758.187 260.219C758.504 251.353 760.07 209.447 756.384 207.883C750.607 205.433 686.848 206.096 679.478 206.622C678.035 207.908 677.394 208.933 677.464 211.11C677.679 217.84 675.966 257.775 678.63 261.356C684.288 263.664 720.28 262.819 728.289 262.34ZM740.533 256.87C742.843 253.306 743.27 253.651 741.191 249.459L741.647 247.224C743.851 246.231 744.429 247.016 747.287 247.931C748.947 242.236 740.853 237.709 735.358 237.764C719.061 245.316 727.954 262.357 740.533 256.87Z"/><path fill="#F3695D" d="M683.811 219.959C703.4 220.056 723.232 219.665 742.835 220.038C745.712 220.093 747.744 220.143 748.267 223.153L747.514 224.216L705.488 224.238C700.355 224.238 687.392 224.586 683.083 223.518L682.595 222.447L683.811 219.959Z"/><path fill="#F3695D" d="M684.621 234.368C690.498 233.877 712.722 232.565 716.056 235.956L715.62 238.517C709.451 238.643 689.07 239.578 684.426 237.722C683.742 235.831 683.836 236.612 684.621 234.368Z"/><path fill="#F3695D" d="M682.975 249.106C688.194 248.997 703.029 248.034 706.697 250.33C707.34 252.602 707.417 251.507 706.328 253.714C700.998 253.816 685.872 254.749 682.131 252.493L681.781 251.035L682.975 249.106Z"/><path fill="#F3695D" d="M1172.6 189.124C1172.97 189.078 1173.34 189.04 1173.71 189.011C1180.76 188.502 1234.89 210.4 1235.06 215.237C1230.48 218.211 1218.54 222.886 1213.17 224.645C1213.36 229.372 1213.95 239.753 1213.12 243.697C1207.53 270.313 1156.58 269.061 1139.85 255.079C1137.66 253.244 1135.54 250.044 1134 247.649C1131.91 241.069 1132.57 227.115 1133.92 220.26C1129.22 218.315 1124.27 216.516 1120.1 213.637C1120.31 220.531 1119.38 227.581 1120.22 234.388C1120.21 234.33 1123.33 235.83 1124.29 237.738L1123.51 239.337C1116.07 241.619 1122.34 248.356 1121.5 254.931C1119.08 257.958 1116.35 258.392 1113.36 255.836C1112.92 253.441 1112.63 254.006 1113.56 252.31L1116.44 251.766C1117.81 242.088 1111.97 239.584 1111.79 237.021C1112.82 235.34 1113.02 235.16 1114.45 233.75L1114.83 233.376C1116.12 224.486 1116 216.473 1115.1 207.582C1127.28 201.958 1159.21 193.076 1172.6 189.124ZM1210.2 220.258L1210.03 219.049C1200.75 215.658 1175.48 216.849 1172.59 213.223C1176.82 205.262 1219.09 219.422 1225.99 213.299C1223.14 212.13 1217.86 210.264 1215.03 209.185C1207.73 206.398 1182.01 193.732 1175.62 192.816C1157.81 198.011 1140.12 203.607 1122.55 209.601C1129.17 213.433 1135.58 216.108 1142.22 219.336C1158.88 227.443 1172.43 232.846 1191.14 227.348C1195.78 225.985 1205.94 222.735 1210.2 220.258ZM1205.96 249.658C1210.47 242.589 1209.09 234.997 1208.76 226.547C1178.11 236.443 1167.18 238.338 1137.28 221.826L1137.35 222.745C1138 232.434 1134.13 245.419 1142.79 251.849C1158.99 263.88 1191.14 262.761 1205.96 249.658Z"/><path fill="#F3695D" d="M1270.68 507.971C1276.16 507.644 1285.74 506.707 1290.32 509.326C1293.32 513.967 1292.05 563.663 1292.03 572.411C1295.17 572.387 1302.96 571.834 1303.92 575.71C1301.02 576.971 1283.19 577.299 1279.51 576.94C1270.48 576.059 1211.27 579.023 1207.8 575.139C1210.41 571.555 1215.37 572.722 1219.32 573.051C1218.72 566.411 1217.75 554.841 1219.43 548.648C1221.32 546.807 1220.56 547.372 1223.81 547.077L1239.96 546.993C1240.55 554.206 1238.93 567.89 1241.61 572.554L1242.76 572.612C1246.27 565.823 1241.89 529.477 1244.97 522.43C1249.46 519.613 1259.79 520.813 1265.33 521.054C1266.5 536.749 1265.07 553.143 1265.61 568.871C1265.67 570.548 1266.56 571.892 1267.63 573.1L1268.77 572.963C1269.71 570.154 1269.05 563.601 1269.24 560.514C1269.83 550.618 1267.63 515.243 1270.68 507.971ZM1287.82 572.638C1287.59 552.538 1287.92 532.304 1287.64 512.297L1273.49 512.195C1273.22 531.978 1273.73 553.293 1273.05 572.743C1277.8 572.665 1283.13 572.455 1287.82 572.638ZM1261.84 572.629C1260.92 559.142 1261.51 539.054 1261.51 525.174L1248.58 525.142C1248.54 538.105 1249.22 560.859 1248.27 572.768C1252.6 572.678 1257.57 572.453 1261.84 572.629ZM1222.95 551.242C1223.18 557.78 1221.82 567.807 1224.39 572.096C1226.32 573.26 1227.86 572.848 1230.19 572.677L1236.01 572.794C1236.08 568.136 1236.57 555.819 1235.63 551.943C1234.12 550.809 1234.95 551.103 1233.07 551.013L1222.95 551.242Z"/><path fill="#F3695D" d="M1051.81 797.64C1061.18 797.25 1071.45 797.502 1080.9 797.553C1081.55 805.892 1081.1 819.697 1081.05 828.332C1085.95 828.55 1096.91 827.1 1100.23 829.037C1105.45 832.086 1103.54 848.173 1100.67 852.557C1094.33 853.714 1053.76 853.907 1050.18 850.892C1049.26 848.45 1048.48 844.916 1048.55 842.008C1048.84 828.658 1047.64 813.545 1049.52 800.426C1049.6 799.841 1051.29 798.208 1051.81 797.64ZM1061.2 832.517C1061.34 831.108 1061.11 830.31 1062.03 829.58C1064.68 827.472 1073.56 828.34 1077.05 828.46C1076.92 819.698 1076.88 810.934 1076.94 802.171C1069.02 801.94 1061.09 801.884 1053.17 802.002C1053.08 809.026 1051.72 845.301 1054.69 848.621C1057.16 849.264 1057.43 849.495 1059.69 848.633C1062.68 845.487 1060.83 837.37 1061.2 832.517ZM1098.69 848.229C1098.68 846.28 1098.99 843.373 1097.93 841.942C1087.18 841.159 1076.07 842.198 1065.77 841.629C1065.75 843.584 1065.43 846.747 1066.35 848.279C1071.17 848.62 1094.28 848.804 1098.69 848.229Z"/><path fill="#F56356" d="M1049.33 375.12C1062.04 375.106 1058.13 380.238 1065.09 386.422C1069.12 387.817 1074.21 385.82 1077.34 389.762C1084.65 398.966 1083.76 404.553 1073.95 411.265C1072.39 412.33 1073.06 414.932 1073.25 416.744C1069.3 427.429 1058.91 428.229 1049.59 424.652C1041.86 420.429 1036.97 430.444 1029.3 425.594C1024.3 422.431 1028.52 416.601 1027.66 412.988C1027.54 412.484 1019.04 406.023 1019.86 402.871C1017.51 389.498 1024.29 388.26 1035.37 387.056C1042.21 381.378 1037.82 377.738 1049.33 375.12Z"/><path fill="#FEFEFE" d="M1046.66 379.749C1057.63 378.327 1058.78 380.268 1060.56 389.43C1061.86 393.321 1070.23 389.489 1072.34 391.137C1086.47 402.876 1071.15 405.035 1068.68 409.835C1063.88 419.167 1071.15 428.736 1047.18 419.644C1041 417.087 1037.94 423.972 1031.78 421.745C1029.49 417.348 1032.75 415.602 1034.13 410.569C1030.95 408.916 1028.35 409.025 1025.91 405.761C1022.59 401.313 1022.69 395.598 1027.47 392.223C1032.81 388.455 1033.82 391.633 1038.82 392.533C1042.55 388.35 1038.86 385.8 1046.66 379.749Z"/><path fill="#F3695D" d="M1007.38 283.046C1016.09 282.977 1034.67 282.276 1042.66 283.804C1047.96 284.817 1046.11 313.028 1046.38 318.376C1046.61 323.162 1046.4 328.737 1040.4 329.996C1032.88 330.053 1009.05 331.047 1003.24 329.051C997.811 324.252 999.481 297.422 1000.32 289.687C1000.84 284.89 1003.4 284.034 1007.38 283.046ZM1004.4 325.114C1011.55 325.937 1034.09 325.894 1041.57 325.343C1041.89 315.148 1042.02 297.374 1041 287.545C1031.26 287.548 1015.28 287.061 1006 287.796C1003.03 291.545 1004.33 318.306 1004.4 325.114Z"/><path fill="#F3695D" d="M1022 295.005C1022.72 295.313 1023.71 295.927 1024.41 296.328C1026.14 300.72 1025.58 317.594 1024.4 322.372L1022.3 321.332C1020.62 317.324 1021.3 299.621 1022 295.005Z"/><path fill="#FEFEFE" d="M692.101 674.539C696.101 673.161 699.546 672.302 703.829 672.761C740.455 676.688 728.721 732.792 695.421 722.947C685.337 719.434 680.06 713.921 676.468 704C675.348 698.874 675.579 696.514 676.742 691.474C677.039 690.564 677.368 689.663 677.728 688.775C680.676 681.561 685.106 677.513 692.101 674.539Z"/><path fill="#F56356" d="M676.742 691.474C677.039 690.564 677.368 689.663 677.728 688.775C680.676 681.561 685.106 677.513 692.101 674.539C693.616 675.423 694.837 676.284 696.537 676.696C688.893 680.341 683.359 683.801 680.673 692.223C679.185 696.89 680.851 706.976 684.565 710.329L686.192 710.531C688.684 708.404 693.014 704.941 694.912 702.547C694.592 697.258 689.374 694.354 694 689.33C697.488 685.543 703.236 683.343 706.983 687.888C711.609 693.499 711.004 697.752 706.988 703.011C711.655 706.157 713.497 707.883 717.5 711.671C716.475 714.684 715.138 716.853 712.205 718.227L711.218 717.866C704.157 719.641 700.735 720.21 693.63 718.283L693.315 720.502L695.421 722.947C685.337 719.434 680.06 713.921 676.468 704C675.348 698.874 675.579 696.514 676.742 691.474Z"/><path fill="#FEFEFE" d="M693.63 718.283C690.646 716.304 690.844 717.073 689.659 714.208C690.025 709.103 694.059 706.283 698.956 705.761C706.263 704.982 710.498 709.3 715.611 713.723C713.627 715.353 712.871 715.937 711.218 717.866C704.157 719.641 700.735 720.21 693.63 718.283Z"/><path fill="#F3695D" d="M676.468 704C675.348 698.874 675.579 696.514 676.742 691.474C679.749 694.929 679.341 697.917 678.601 702.255L676.468 704Z"/><path fill="#FEFEFE" d="M698.956 689.965C701.948 688.636 705.453 689.965 706.812 692.944C708.171 695.924 706.878 699.442 703.913 700.832C701.968 701.743 699.684 701.54 697.931 700.299C696.178 699.058 695.226 696.971 695.438 694.833C695.65 692.696 696.993 690.837 698.956 689.965Z"/><path fill="#F3695D" d="M692.101 674.539C696.101 673.161 699.546 672.302 703.829 672.761C740.455 676.688 728.721 732.792 695.421 722.947L693.315 720.502L693.63 718.283C700.735 720.21 704.157 719.641 711.218 717.866L712.205 718.227C715.138 716.853 716.475 714.684 717.5 711.671C721.21 707.338 723.166 702.244 722.72 696.503C722.219 690.644 719.345 685.245 714.765 681.558C708.755 676.65 703.863 676.052 696.537 676.696C694.837 676.284 693.616 675.423 692.101 674.539Z"/><path fill="#F3695D" d="M1096.82 607.008C1110.49 605.124 1123.14 614.579 1125.21 628.229C1127.27 641.878 1117.99 654.655 1104.37 656.902C1095.4 658.382 1086.32 654.919 1080.62 647.837C1074.92 640.755 1073.46 631.151 1076.82 622.697C1080.17 614.244 1087.81 608.25 1096.82 607.008ZM1103.65 652.541C1114.96 650.654 1122.61 639.974 1120.75 628.661C1118.9 617.348 1108.24 609.669 1096.93 611.491C1085.57 613.32 1077.85 624.032 1079.71 635.39C1081.57 646.749 1092.3 654.436 1103.65 652.541Z"/><path fill="#F3695D" d="M1103.85 614.235C1108.91 616.787 1107.16 628.728 1107.02 633.882C1100.68 634.1 1092.86 633.828 1086.41 633.777C1085.36 631.609 1085.37 632.443 1085.89 630.444C1089.34 628.475 1098.5 629.358 1102.88 629.517C1102.72 625.194 1102.37 618.181 1103.85 614.235Z"/><path fill="#F3695D" d="M841.065 202.646C848.802 202.634 885.567 201.189 889.675 203.966C891.955 207.462 891.554 212.13 888.523 215.099C882.247 216.219 847.218 216.688 841.209 215.213C838.132 211.748 838.724 206.402 841.065 202.646ZM872.25 210.849C876.658 210.902 881.817 211.2 886.053 210.263L886.445 209.506C882.595 205.523 863.983 207.472 858.036 207.421C853.923 207.379 845.263 206.934 841.936 209.042C845.86 211.868 866.174 210.959 872.25 210.849Z"/><path fill="#F3695D" d="M1263.55 637.899C1301.24 642.081 1331.58 672.084 1341.21 707.863C1342.07 711.054 1342.02 712.658 1340.29 715.323C1339.52 715.013 1338.3 714.217 1338.12 713.385C1330.36 677.657 1301.64 648.458 1265.35 642.115C1263.66 641.819 1263 640.977 1262.33 639.572L1263.55 637.899Z"/><path fill="#F56356" d="M388.662 385.096C391.563 386.789 394.394 393.519 396.69 397.219C399.356 397.969 401.668 398.252 403.422 400.245C402.754 403.109 395.257 406.532 392.98 409.472C391.084 411.92 389.988 415.075 388.857 417.909C381.382 404.763 386.641 405.744 369.616 401.526C373.012 400.126 377.25 399.043 380.839 398.023C383.763 394.286 386.237 389.313 388.662 385.096Z"/><path fill="#F56356" d="M521.146 574.697C523.099 574.437 524.308 574.034 526.043 574.899L526.004 576.032C522.402 579.222 512.123 582.671 507.622 585.23C487.722 596.543 473.432 615.018 465.962 635.928C465.33 637.459 465.303 637.328 463.865 638.205L462.932 637.337C462.172 633.729 463.953 628.639 465.478 625.365C476.556 601.741 496.59 583.506 521.146 574.697Z"/><path fill="#F3695D" d="M549.408 187.711C553.988 189.764 553.465 194.44 556.931 197.787C559.388 200.159 563.685 200.498 565.465 203.641C563.054 206.608 558.717 205.319 555.852 208.646C552.936 212.032 553.302 214.722 550.532 218.555C548.302 216.538 547.521 213.01 546.485 210.004C541.228 205.632 540.595 206.433 535.309 203.229C536.414 201.797 542.789 199.123 545.021 197.975C546.511 194.565 547.974 191.144 549.408 187.711Z"/><path fill="#F3695D" d="M456.287 668.638C459.819 670.228 459.525 672.417 460.198 675.939C462.253 686.693 464.628 698.61 469.806 708.397C472.722 713.906 478.155 720.316 482.17 725.034C485.997 729.494 492.919 733.6 493.056 739.204C487.898 738.265 479.069 728.187 475.725 724.283C464.61 711.31 454.392 685.834 456.287 668.638Z"/><path fill="#F3695D" d="M1293.75 457.893C1296.74 459.643 1298.81 464.783 1300.54 468.087C1303.99 468.852 1307.43 469.643 1310.86 470.46L1300.24 475.552C1299 477.542 1297.49 480.716 1296.37 482.881L1294.88 483.123C1289.02 479.158 1298.83 477.286 1279.8 471.194C1282.7 469.752 1286.15 468.391 1289.17 467.122C1290.63 464.012 1292.15 460.935 1293.75 457.893Z"/><path fill="#F3695D" d="M795.794 58.0272C801.127 58.8837 818.501 75.601 818.774 81.187C812.333 81.3432 795.835 65.296 795.794 58.0272Z"/><path fill="#F3695D" d="M932.905 58.1351C934.474 58.2074 933.893 58.1494 935.41 58.9572L935.731 60.6726C933.95 65.4575 920.057 77.2968 915.625 81.4567C914.217 81.127 914.622 81.1721 913.35 80.2386L913.141 78.488C915.159 73.6809 928.137 62.799 932.905 58.1351Z"/><path fill="#F3695D" d="M863.489 27.9297C865.259 28.2819 865.438 28.1807 866.879 29.3316C869.073 34.2529 868.342 53.8285 867.056 59.0609C865.314 58.7453 865.407 58.8274 864.018 57.7488C861.984 52.4688 863.057 34.2543 863.489 27.9297Z"/><path fill="#F56356" d="M766.918 124.581C773.662 124.401 790.03 123.311 796.452 125.338C797.383 125.632 797.509 127.685 797.816 129.042C791.583 128.979 773.842 130.351 767.872 128.045C767.097 127.745 767.087 125.758 766.918 124.581Z"/><path fill="#F3695D" d="M639.152 587.37C642.451 587.502 652.005 588.243 654.453 589.921L654.674 591.602C653.624 594.045 652.191 594.863 650.107 596.548C647.585 598.593 646.902 601.102 644.38 602.106C644.044 601.813 639.148 588.175 639.152 587.37Z"/><path fill="#F3695D" d="M850.164 219.973C855.296 219.496 876.76 218.128 880.242 221.302L880.255 223.593C874.684 224.64 859.249 225.016 853.471 223.593C851.162 223.025 850.96 221.723 850.164 219.973Z"/><path fill="#F3695D" d="M935.712 124.567C941.85 124.388 959.828 122.811 964.091 126.302L964.299 128.827C958.967 129.313 941.939 129.232 936.78 128.854C935.412 127.394 935.879 127.19 935.712 124.567Z"/><path fill="#F3695D" d="M1117.65 327.646C1119.54 329.202 1119.13 328.442 1119.83 330.588C1117.45 334.858 1110.29 350.833 1108.5 353.075C1102.19 349.033 1114.11 331.205 1117.65 327.646Z"/><path fill="#F3695D" d="M1170.66 466.598C1177.94 468.333 1193.71 468.162 1196.74 471.175L1196.06 472.853C1189.96 473.381 1173.46 474.14 1170.13 468.883L1170.66 466.598Z"/><path fill="#F3695D" d="M1040.72 220.202C1043.39 219.016 1046.52 220.206 1047.73 222.867C1048.94 225.528 1047.77 228.666 1045.12 229.897C1042.44 231.142 1039.26 229.962 1038.03 227.269C1036.81 224.576 1038.02 221.402 1040.72 220.202Z"/><path fill="#F3695D" d="M389.363 625.357C391.054 624.473 393.091 624.568 394.693 625.608C396.294 626.647 397.211 628.469 397.093 630.375C396.974 632.28 395.838 633.974 394.12 634.807C391.52 636.068 388.389 635.007 387.089 632.426C385.79 629.844 386.802 626.697 389.363 625.357Z"/><path fill="#F3695D" d="M551.443 948.022C554.121 947.222 556.947 948.712 557.801 951.374C558.655 954.037 557.223 956.893 554.58 957.802C552.821 958.406 550.873 958.012 549.487 956.772C548.101 955.531 547.494 953.638 547.9 951.823C548.305 950.008 549.661 948.554 551.443 948.022Z"/><path fill="#F3695D" d="M1235.18 916.386C1236.91 915.724 1238.85 916.046 1240.27 917.228C1241.69 918.41 1242.36 920.266 1242.02 922.082C1241.68 923.898 1240.39 925.388 1238.64 925.979C1236.01 926.867 1233.15 925.489 1232.21 922.877C1231.27 920.266 1232.59 917.381 1235.18 916.386Z"/><path fill="#F3695D" d="M518.524 78.6587C520.775 77.0571 523.893 77.5473 525.545 79.7624C527.197 81.9776 526.778 85.1068 524.601 86.8087C523.149 87.9446 521.195 88.2047 519.496 87.4886C517.797 86.7725 516.619 85.1924 516.417 83.3593C516.215 81.5262 517.021 79.7275 518.524 78.6587Z"/><path fill="#F3695D" d="M1147.43 658.451C1149.12 657.704 1151.09 657.963 1152.54 659.124C1153.98 660.284 1154.66 662.153 1154.3 663.97C1153.94 665.788 1152.59 667.251 1150.81 667.766C1148.3 668.493 1145.66 667.148 1144.76 664.691C1143.87 662.234 1145.04 659.505 1147.43 658.451Z"/><path fill="#F3695D" d="M707.579 572.111C709.902 571.347 712.412 572.572 713.24 574.873C714.069 577.175 712.916 579.719 710.639 580.612C709.108 581.212 707.371 580.933 706.105 579.883C704.839 578.833 704.244 577.178 704.55 575.562C704.856 573.946 706.016 572.624 707.579 572.111Z"/><path fill="#F3695D" d="M682.386 561.894C686.024 562.07 691.096 562.227 694.003 564.493L694.071 565.685L692.26 567.047C689.137 566.833 683.56 566.779 681.03 565.475L680.711 564.11L682.386 561.894Z"/><path fill="#F3695D" d="M676.222 578.652C681.62 577.508 687.4 577.077 690.003 582.803C685.452 583.118 678.807 582.64 676.222 578.652Z"/><path fill="#F3695D" d="M690.494 590.124C693.302 591.242 693.021 590.607 694.182 592.674C692.186 595.2 692.081 594.685 688.784 596.093C687.277 596.165 687.568 596.088 686.045 595.692L685.737 594.562C686.997 592.149 688.22 591.64 690.494 590.124Z"/></svg>