<svg xmlns="http://www.w3.org/2000/svg" xmlns:xlink="http://www.w3.org/1999/xlink" viewBox="289.85 21.47 790.52 782.28"><path fill="#EE675F" d="M350.896 144.399C358.577 146.54 371.245 154.505 378.648 158.782C391.971 166.483 405.245 174.267 418.47 182.135C450.719 201.332 483.088 220.327 515.575 239.119C527.009 245.786 538.658 253.108 550.385 259.181C555.188 261.668 557.534 251.395 558.58 248.151C563.491 256.831 564.639 260.165 572.976 265.575L567.16 268.178C579.033 276.722 593.539 283.499 605.829 291.62C615.478 297.996 627.065 303.901 635.339 312.036C648.809 301.499 653.786 296.283 653.298 278.628C639.348 264.522 632.078 236.537 647.352 220.268C650.033 217.586 653.794 215.377 656.348 212.652C660.254 208.227 660.467 203.95 666.153 201.047C675.873 196.083 688.141 203.552 696.842 203.377C720.781 202.894 734.717 197.875 753.44 217.926C774.478 240.456 764.071 266.322 770.5 292.835C772.924 302.955 784.538 310.471 783.998 320.025C783.281 332.699 763.549 341.272 754.055 345.696C776.284 357.054 814.776 396.778 823.249 421.637C826.639 431.585 822.582 442.49 817.834 451.376C816.566 453.769 815.201 456.109 813.742 458.391C825.717 457.389 897.176 452.808 897.948 439.58C891.954 429.172 840.248 428.73 833.791 414.567C826.682 398.974 881.19 396.311 888.403 394.59C886.686 392.578 884.485 390.132 882.94 388.057C887.824 389.614 897.889 391.562 897.586 397.764C892.829 405.81 860.863 406.182 849.607 411.183C868.725 422.366 915.26 420.709 925.351 441.632C932.761 456.997 875.414 467.03 867.431 468.311C845.54 471.673 823.48 473.811 801.351 474.716C789.048 487.785 777.948 497.575 764.233 509.003C764.603 515.022 764.907 521.158 765.572 527.142C798.345 530.395 884.838 539.295 905.282 564.235C907.153 566.518 908.008 568.788 908.857 571.589C907.105 578.518 904.623 583.234 897.939 586.475C864.63 602.631 811.758 608.763 775.811 613.219C780.145 640.441 782.715 668.104 786.498 695.401C787.082 699.613 789.179 720.07 790.045 722.524C794.772 724.69 817.734 728.171 823.741 729.206C854.7 734.481 885.629 739.929 916.527 745.551C927.345 747.526 951.458 750.919 960.232 754.888C953.421 758.337 940.393 761.758 932.658 763.974L894.305 774.977L838.615 791.101C827.024 794.531 815.229 798.221 803.581 801.369C781.811 807.252 755.23 800.881 733.339 796.802C709.063 792.257 684.84 787.428 660.676 782.317C611.53 772.603 562.562 762.01 513.794 750.544C467.752 739.784 417.115 729.026 375.409 706.896C335.472 685.704 353.728 653.651 386.692 639.3C431.995 619.577 483.981 612.565 532.578 605.781C567.065 600.9 601.662 596.831 636.341 593.578C635.616 574.007 634.478 554.166 634.153 534.629C625.615 534.237 544.11 525.471 569.867 499.582C579.625 489.773 618.894 482.877 633.834 482.715C634.559 466.237 638.981 447.471 643.025 431.382C634.519 440.95 625.243 448.854 611.565 449.173C586.931 449.748 562.863 427.871 548.153 410.14C538.089 398.009 523.613 411.006 520.506 392.657C512.813 395.235 490.579 407.883 482.208 412.409L392.502 460.312C384.421 464.632 358.181 479.542 350.786 482.187C350.863 463.508 350.788 444.829 350.562 426.152C346.95 427.723 338.416 432.168 335.03 431.251C330.845 427.874 325.84 414.496 327.148 409.618C331.226 406.004 349.066 403.459 353.584 399.822C353.018 398.663 353.108 399.153 352.379 398.462C349.44 395.677 350.682 384.253 350.723 379.901C350.866 365.574 350.935 351.245 350.931 336.916C350.948 325.266 352.07 311.076 347.561 300.305C337.646 273.644 340.439 261.731 350.611 236.462L350.806 180.662C350.803 169.833 350.333 154.918 350.896 144.399ZM883.31 743.377L825.92 733.156C815.879 731.378 799.612 728.149 789.7 727.572C795.854 737.088 804.03 745.571 812.761 752.765C822.55 754.046 835.574 754.245 843.978 758.378L844.387 759.119C837.547 760.1 822.069 757.49 814.685 756.415C818.015 763.291 819.117 771.177 810.374 774.962C794.161 781.982 762.216 771.078 754.339 755.335C751.625 749.91 753.619 733.366 753.165 725.859C748.992 724.007 747.382 723.524 744.879 719.563C726.24 717.109 702.554 712.587 683.748 709.224C683.432 714.342 683.877 716.925 679.202 719.927C683.776 730.889 686.088 738.559 683.35 750.86C666.936 760.74 632.154 766.767 612.76 763.182C608.592 762.412 599.49 758.715 601.922 752.966C609.025 736.173 631.654 734.337 643.019 721.808C644.092 720.603 641.059 710.573 640.675 708.813C640.418 707.632 640.491 704.098 640.5 702.472C617.889 698.639 510.242 681.522 499.933 667.137C498.979 665.805 498.547 664.262 498.94 662.645C499.836 658.959 504.43 656.048 507.557 654.367C528.537 643.087 577.098 636.552 601.605 632.469C613.33 630.516 625.655 627.719 637.506 627.028L637.254 616.131C629.406 616.512 594.152 620.274 589.761 619.065L589.88 618.309C597.489 613.702 626.802 612.946 637.037 612.504C636.994 609.408 637.169 599.677 636.106 597.546L634.694 597.57C584.926 602.125 535.349 608.563 486.068 616.869C447.807 623.508 390.769 631.785 361.941 661.222C357.819 665.43 355.576 673.169 356.409 678.814C357.214 686.632 363.274 694.194 369.53 698.588C386.104 710.232 411.954 719.695 431.315 725.532C461.042 734.494 492.58 741.932 522.803 748.92C572.185 760.358 621.752 770.984 671.483 780.793C697.669 786.113 769.95 803.027 792.92 799.76C811.338 797.141 830.557 789.671 848.496 784.426C882.442 774.486 916.455 764.779 950.534 755.307L908.187 747.837C901.278 746.576 889.942 744.132 883.31 743.377ZM680.979 336.248C644.74 349.272 633.554 379.949 609.084 402.733C615.642 408.398 618.925 413.461 621.036 421.755C617.06 417.759 610.98 408.257 607.217 405.272C595.443 395.934 579.241 388.386 565.846 380.26C564.738 392.974 558.328 397.499 549.28 405.714C570.642 432.595 612.996 468.983 642.885 425.94C646.483 420.758 645.252 408.973 647.759 402.643C647.723 402.328 647.422 400.335 647.318 400.238C642.951 396.146 632.682 387.052 630.119 381.711L630.628 381.176C635.18 382.679 644.07 394.591 647.537 396.645L648.467 394.239C648.331 384.962 651.309 367.921 656.829 360.232C655.474 369.325 653.539 378.139 652.167 387.324C650.114 401.065 648.891 415.83 646.482 429.417C643.793 444.581 639.859 458.33 637.843 473.833C664.993 481.063 699.798 480.867 728.111 479.656C734.619 469.487 740.596 469.207 751.846 467.318C753.26 465.266 754.211 463.535 756.233 462.107C756.331 460.916 754.452 453.791 754.108 452.299C750.421 436.3 746.906 423.886 751.922 407.612C749.337 405.969 738.921 399.717 737.688 397.796L738.263 397.091C745.584 396.661 773.414 420.617 777.004 427.11C778.376 424.045 780.244 420.149 783.232 418.487C784.171 422.853 760.269 462.053 755.157 467.776C756.109 467.866 757.059 467.98 758.006 468.117C771.284 470.071 777.41 475.483 785.058 485.694C801.367 473.949 829.65 437.721 818.315 417.213C802.959 389.43 776.366 363.342 749.719 346.238C743.029 341.944 728.363 336.97 720.529 334.048C713.949 345.012 697.726 353.882 685.862 344.637C683.335 342.668 682.154 339.191 680.979 336.248ZM643.997 703.932C658.638 708.362 665.796 708.8 680.872 707.503C684.415 675.254 689.155 642.802 692.581 610.467C694.196 595.223 697.035 578.118 696.943 562.854C696.907 556.919 692.452 541.198 688.633 536.649C684.392 531.598 674.911 529.328 668.836 525.054C676.141 526.124 685.886 528.357 690.652 534.542C696.335 541.918 706.749 580.727 710.483 591.702C723.115 627.56 736.454 675.657 746.634 712.303C762.441 714.756 769.406 713.765 785.2 710.444C780.953 681.726 778.209 653.047 774.352 624.379C771.46 603.031 768.761 581.657 766.254 560.261C764.249 543.963 761.822 526.197 760.947 509.811C758.271 512.011 754.589 515.439 751.747 517.178C734.626 527.653 724.228 504.834 722.033 492.392C695.942 494.89 662.102 492.705 636.677 486.6C635.573 512.881 637.441 535.746 638.495 561.728L641.618 649.979C642.323 667.73 643.662 686.302 643.997 703.932ZM667.851 234.147L668.684 233.348C667.1 229.692 666.435 228.706 666.177 224.787L666.749 224.59C669.138 227.69 671.986 232.529 674.298 235.039C675.065 235.887 675.865 236.704 676.696 237.49C687.986 248.082 705.581 255.48 720.771 258.094C725.244 258.863 738.209 255.937 740.465 258.025L739.863 259.021C736.946 260.496 733.148 261.068 729.895 261.732C731.342 264.102 732.804 266.462 734.282 268.812C736.851 267.831 739.112 266.7 741.882 266.332C755.807 264.58 757.974 278.864 750.87 287.546C748.888 289.967 746.094 291.85 743.139 292.857C740.726 293.679 737.346 293.858 734.783 294.081C731.16 304.682 729.245 307.287 720.783 313.918C720.993 319.658 720.982 325.068 720.94 330.814C730.773 334.032 740.69 338.741 750.237 342.847C760.045 339.127 775.913 333.203 779.984 322.689C783.227 314.315 772.199 306.283 769.183 298.935C759.645 275.051 770.463 252.438 757.244 228.791C741.953 201.438 721.522 206.637 695.007 206.326C686.738 206.229 674.821 200.382 666.286 204.688C663.064 206.313 662.211 211.542 659.909 214.16C652.322 220.888 645.31 224.404 642.929 235.317C639.774 249.771 646.259 263.139 653.857 275.184C653.596 257.894 653.527 246.022 667.851 234.147ZM767.857 550.926C773.538 551.575 835.337 558 810.361 573.49L808.908 574.447C798.306 578.009 782.793 580.3 771.651 580.917C772.511 586.135 773.737 603.091 775.86 605.728C782.069 602.218 787.473 601.62 792.186 597.559C793.603 596.339 794.359 593.885 795.818 594.081C796.622 602.011 790.484 603.083 784.134 605.174C782.397 605.746 778.628 606.828 776.916 606.765C775.147 608.138 775.45 607.476 775.208 609.25L776.323 609.945C783.211 610.499 791.805 608.258 798.693 607.273C822.276 603.902 880.755 595.653 898.608 582.412C901.542 580.236 904.313 577.262 904.735 573.47C905.075 570.406 903.962 567.612 902.041 565.277C884.612 544.087 794.31 533.161 765.775 530.246L767.857 550.926ZM418.379 293.812L424.328 296.213C424.791 298.373 424.935 300.57 426.454 301.975C431.553 302.726 432.499 296.035 439.017 301.985C441.392 301.987 440.48 302.122 442.878 300.808C444.181 298.004 440.904 295.22 442.74 293.561C449.061 287.848 453.644 289.406 443.882 281.36L443.366 274.011C435.169 274.963 434.736 274.802 427.078 271.658L424.68 277.513C422.439 278.318 420.668 278.624 419.387 280.512C418.884 283.007 420.192 285.055 421.421 287.36C420.428 289.452 419.299 291.709 418.379 293.812ZM791.166 734.89C790.675 734.338 788.513 731.647 788.065 731.766C775.508 735.097 770.431 737.277 756.786 734.367C756.504 739.002 756.189 743.425 756.233 748.075C767.002 760.083 779.928 766.913 796.188 768.047C799.513 768.279 813.785 767.644 813.33 762.668C811.552 743.201 792.101 752.902 783.863 752.336L783.265 751.811C787.924 747.558 795.401 747.525 801.188 747.151C790.926 738.83 783.559 751.847 778.763 748.956C779.493 744.601 788.974 742.719 792.976 742.127L794.577 741.543L794.83 740.55C789.747 736.302 780.145 743.855 774.08 743.454L773.948 742.503C775.847 739.466 786.36 738.214 791.048 735.912L791.166 734.89ZM894.553 397.001C885.359 397.656 836.454 402.623 835.94 413.069C837.505 416.571 843.765 418.726 847.327 420.078C852.668 422.098 858.147 423.731 863.722 424.964C872.641 426.997 907.174 431.644 901.62 441.866C893.283 457.207 824.674 461.106 811.51 461.602C808.997 464.338 806.38 468.208 804.168 471.283C807.377 471.115 810.797 470.999 813.976 470.68C838.323 469.117 886.306 464.748 907.681 455.561C961.695 432.346 853.392 423.164 846.604 412.095C846.262 402.126 887.755 403.986 894.908 397.621L894.553 397.001ZM525.669 393.966L524.581 394.956C524.554 397.593 524.237 396.657 525.567 398.648C529.669 401.195 537.433 400.552 542.199 400.158C543.734 398.561 543.336 399.338 543.781 397.244C541.075 393.178 530.364 393.764 525.669 393.966ZM637.249 483.726C650.56 486.691 718.029 495.45 726.674 487.948C727.893 486.313 728.502 485.851 728.604 483.925C726.389 481.059 707.446 483.518 702.633 483.369C681.478 482.715 657.661 483.067 637.473 476.256L637.249 483.726ZM715.8 617.949C713.661 610.867 707.432 593.103 706.225 587.367C703.446 587.903 701.648 588.492 698.896 587.805C696.975 591.111 695.427 613.786 694.585 619.445C701.648 619.14 709.051 618.126 715.8 617.949ZM758.449 459.722C761.17 454.249 772.77 432.592 775.836 428.774C770.626 424.718 760.473 414.471 754.093 409.032C751.38 429.636 753.845 439.197 758.449 459.722ZM771.457 577.934C782.669 576.771 796.901 575.267 807.499 571.369C809.463 570.239 810.75 569.772 811.876 567.835C812.174 558.599 775.32 554.491 768.21 553.69C769.369 561.718 770.21 569.98 771.457 577.934ZM407.515 282.404C408.562 279.478 409.675 276.576 410.852 273.701C409.698 271.875 407.181 268.568 407.138 266.767C416.262 259.367 415.545 271.853 421.822 269.954C424.17 267.709 425.177 266.229 427.094 263.582C430.89 264.55 435.096 266.34 437.084 261.948C436.912 258.45 435.343 257.217 433.098 254.466C435.077 251.916 438.036 248.887 438.825 246.004C438.101 241.861 433.422 241.931 429.816 241.344C429.481 238.661 429.438 235.844 427.903 233.703C426.458 232.699 426.368 232.634 424.701 232.129C422.542 233.788 420.106 235.762 417.825 237.174C414.713 235.113 412.306 232.879 408.713 232.885C405.016 235.919 408.883 241.872 405.908 244.318C402.579 247.056 399.797 244.607 398.191 249.947C399.761 255.804 408.656 254.552 402.584 266.335C400.675 267.247 401.414 267.015 399.056 266.711C394.158 263.994 394.498 257.695 389.218 257.978C384.648 260.62 383.697 264.667 381.542 269.429C377.037 267.391 371.911 264.267 369.176 270.315C368.787 271.181 368.42 272.058 368.073 272.942C370.164 275.738 372.265 277.595 371.912 281.233C371.385 286.662 361.868 287.418 365.39 293.62C367.28 296.95 374.626 293.629 377.026 296.746C380.425 301.161 377.57 303.882 381.17 309.001C384.819 308.452 389.347 305.3 392.882 303.372C395.949 305.045 401.366 308.467 404.884 307.347C406.954 302.711 399.994 297.88 411.038 293.697C413.101 292.915 413.835 293.14 415.005 291.526C413.925 286.894 410.435 285.608 407.515 282.404ZM554.874 396.614C559.459 391.352 561.35 388.487 563.005 381.58C559.559 376.467 542.248 353.069 537.912 352.237C537.211 352.102 536.506 352.037 535.796 351.978C532.161 359.823 544.219 359.37 542.375 372.829C547.206 381.319 553.16 386.72 550.596 396.082C550.073 397.938 549.509 399.782 548.902 401.612C550.844 399.99 552.991 398.271 554.874 396.614ZM607.639 757.829C623.954 765.928 653.47 758.358 670.315 753.517C673.165 752.697 680.616 750.229 679.868 746.445L679.446 746.151C660.505 751.784 639.039 757.452 619.178 756.987C613.741 756.859 610.843 755.585 606.07 755.111L606.02 756.032L607.639 757.829ZM652.503 722.646C661.146 727.257 668.319 726.979 677.73 725.796C677.433 723.972 677.241 722.098 677.026 720.261C670.079 720.579 663.12 720.551 656.176 720.178C652.329 719.352 648.088 718.417 644.564 716.661C646.748 718.91 649.352 721.927 652.503 722.646ZM640.527 698.918C640.356 693.605 637.68 630.901 637.363 630.486C616.752 635.248 513.429 647.275 503.956 661.56C503.076 662.888 503.181 663.552 503.455 665.06C507.49 670.995 523.921 674.695 530.887 676.487C568.279 685.994 602.879 691.548 640.527 698.918ZM751.941 721.949C759.782 723.215 784.747 725.379 786.596 715.46C785.649 713.613 786.353 714.148 784.601 713.578L782.764 713.943C767.484 716.536 762.376 717.216 746.995 715.151C748.231 718.966 748.138 720.261 751.941 721.949ZM564.981 265.591C563.438 263.262 561.118 259.519 559.403 257.475C556.845 260.484 555.876 261.3 552.745 263.765C555.603 266.844 557.168 269.928 558.726 273.828L564.981 265.591ZM539.769 380.487C541.098 379.889 541.891 379.697 542.74 378.517C542.16 372.357 522.126 373.675 517.41 373.848C516.005 374.893 515.695 374.983 514.983 376.508C516.107 383.108 534.656 381.34 539.769 380.487ZM744.105 715.899C737.387 689.665 724.391 649.066 716.937 621.942C716.635 621.683 716.332 621.424 716.029 621.165L714.034 621.391C707.766 621.808 700.36 622.464 694.158 622.613C693.559 635.278 691.188 651.712 689.551 664.476C687.876 677.54 686.264 693.398 683.969 706.227C689.985 705.971 713.39 710.513 720.125 711.718C728.134 713.017 736.128 714.41 744.105 715.899ZM522.084 354.112C520.211 355.202 519.349 355.443 518.484 357.405C519.695 360.543 523.955 359.761 526.829 359.513C529.222 358.568 528.77 359.137 530.092 357.335C529.079 354.105 524.936 354.133 522.084 354.112ZM814.18 769.161L814.136 767.821C812.532 767.585 808.744 769.564 806.765 770.027C791.712 773.553 776.371 767.783 764.217 759.005C762.323 757.637 758.401 754.242 756.547 753.267C764.637 769.188 800.131 781.357 814.18 769.161ZM787.024 728.81C786.609 727.465 785.709 723.649 784.883 723.013C774.324 725.979 768.243 725.913 757.367 726.157C756.651 728.29 756.8 728.73 756.923 731.044C758.099 731.784 758.041 731.737 759.408 732.031C770.727 733.819 776.636 732.778 787.024 728.81ZM679.775 715.525C680.325 713.599 680.971 712.216 680.487 710.333C678.228 710.364 675.951 710.46 673.708 710.763C663.608 712.13 653.331 709.672 643.765 706.638C643.838 709.015 643.612 711.131 644.826 713.068C651.261 717.922 667.072 718.294 674.731 717.152C676.488 716.88 678.191 716.331 679.775 715.525ZM819.709 585.019C823.455 585.077 834.849 582.979 836.976 583.887L837.032 584.871C834.019 587.291 799.654 592.013 796.038 590.662C798.727 587.248 813.354 585.921 818.457 585.071L819.709 585.019ZM646.555 723.427L641.894 728.404C644.789 729.581 648.457 730.615 649.965 733.321L649.41 733.807C643.935 732.605 640.564 730.182 635.148 731.053L634.359 731.723C637.044 733.491 640.514 734.325 641.809 736.125C638.066 736.978 629.31 733.866 627.84 735.915C632.599 738.579 633.476 739.256 637.391 742.983C631.967 741.981 629.613 740.745 624.576 738.632C619.912 740.176 606.232 746.561 606.893 752.382C608.064 752.96 608.627 753.231 609.902 753.659C626.403 756.353 666.528 749.688 680.694 742.434C680.728 736.926 680.698 733.689 678.971 728.324C668.255 730.103 655.988 729.196 646.555 723.427ZM698.926 585.85C700.744 585.728 703.846 585.227 705.748 584.977C703.978 581.734 701.431 572.355 700.234 568.329C699.898 571.464 698.364 583.687 698.926 585.85ZM519.662 384.728C519.203 387.464 518.991 386.529 520.039 388.614C524.234 391.871 536.936 390.96 542.194 390.481C543.057 387.627 543.208 388.541 542.394 386.328C538.418 382.946 524.788 384.3 519.662 384.728ZM530.85 370.583C534.032 370.346 538.369 370.554 538.833 366.66C536.429 362.519 531.284 362.503 526.979 362.906C522.965 363.182 520.026 363.056 516.878 365.742C515.096 371.382 527.792 370.589 530.85 370.583ZM633.767 530.976L633.405 511.926C628.64 511.796 620.308 512.242 618.935 506.492C620.223 500.665 627.785 498.167 633.109 498.848C633.908 497.45 633.666 488.709 633.678 486.47C632.368 485.522 631.587 485.937 629.632 486.047C613.103 487.31 590.685 491.27 576.148 499.36C552.563 512.485 585.054 522.199 595.208 525.053C609.229 528.674 619.324 529.874 633.767 530.976ZM654.691 296.006C649.523 305.798 647.388 308.875 637.163 314.372C645.4 325.924 653.341 332.963 666.781 338.417C671.176 336.78 677.18 334.325 681.513 333.009L684.177 324.192C666.571 318.312 661.646 313.267 654.691 296.006ZM749.965 470.772C743.882 471.469 729.641 473.802 732.055 483.082C733.668 483.164 740.562 479.665 743.155 478.784C739.299 481.883 720.565 492.932 726.356 498.517C732.22 495.817 739.243 488.631 745.882 484.789C740.777 491.511 734.415 496.263 727.945 501.643C728.853 503.771 729.831 506.225 730.804 508.29C737.844 503.187 743.731 495.678 750.137 491.113C746.514 497.918 741.84 502.334 736.319 507.607C734.647 509.511 734.168 509.386 734.034 511.543C735.211 513.304 735.394 513.479 737.24 514.516C740.725 513.882 752.037 499.736 759.084 495.263C756.415 498.933 742.848 513.769 742.67 515.938C744.396 516.587 746.45 516.814 747.98 515.823C757.187 509.866 776.028 495.676 782.216 487.489C775.117 476.334 763.562 469.101 749.965 470.772ZM592.032 391.285C596.497 393.809 603.268 397.431 607.39 400.359C611.829 395.659 616.734 389.23 620.888 384.168C635.939 365.827 644.671 354.16 663.906 340.426C651.091 335.189 650.424 333.271 640.449 325.478C625.987 335.564 609.917 343.98 594.342 352.315C583.273 358.24 570.245 365.642 558.929 370.742C567.605 378.306 581.731 385.779 592.032 391.285ZM670.206 235.616C658.6 247.015 656.569 254.575 656.287 271.156C656.037 285.867 656.477 300.069 667.507 311.287C673.689 317.662 682.167 321.294 691.046 321.371C696.68 321.377 705.288 318.405 707.959 318.995C707.4 320.577 704.692 322.223 703.148 322.976C696.659 326.126 687.409 325.699 684.427 333.56C682.413 338.648 687.571 343.495 692.088 344.738C701.402 347.301 715.363 341.068 717.661 331.14C718.965 325.509 718.424 317.503 718.269 311.553C728.016 304.611 729.522 301.758 732.671 290.214C738.411 290.672 742.362 291.083 747.137 287.17C753.606 281.869 753.767 269.043 743.242 268.984C740.483 268.969 737.129 270.647 734.556 271.708C730.75 268.235 729.198 266.303 726.014 262.34C707.098 258.774 684.549 251.704 671.686 236.292C671.001 235.744 671.102 235.897 670.206 235.616Z"/><path fill="#E1625A" d="M463.389 294.249L464.492 295.071C463.926 296.499 460.966 305.127 460.819 305.411L458.83 306.213L458.043 305.328C458.4 303.231 458.987 302.469 460.023 300.637C461.035 299.955 462.755 295.653 463.389 294.249Z"/><path fill="#EE675F" d="M480.262 285.92C516.703 281.879 535.713 337.645 505.215 352.026C470.005 359.888 449.861 298.864 480.262 285.92Z"/><path fill="#E1625A" d="M350.611 236.462C350.629 238.649 350.054 242.923 350.143 243.869C343.401 262.182 341.658 277.431 348.563 296.338L347.561 300.305C337.646 273.644 340.439 261.731 350.611 236.462Z"/><path fill="#E1625A" d="M596.521 715.658C598.098 715.29 598.714 715.109 600.033 715.947L599.94 717.079C596.324 720.324 546.209 736.955 537.228 740.405L534.868 740.485L534.092 739.732L534.673 738.555C540.199 734.559 587.635 718.426 596.521 715.658Z"/><path fill="#E1625A" d="M746.914 741.081C748.176 741.454 748.122 741.376 748.923 742.409C747.441 745.404 734.61 751.987 730.912 754.169C719.782 760.722 708.736 767.416 697.775 774.249C696.482 773.9 697.03 774.227 696.116 773.172L696.42 771.803C701.156 766.402 738.666 745.549 746.914 741.081Z"/><path fill="#E1625A" d="M495.138 693.813C496.846 693.566 498.396 693.311 499.653 694.585C496.962 698.547 453.823 706.508 446.215 708.093C444.397 708.422 443.28 708.739 441.961 707.583C442.03 707.433 442.078 707.272 442.169 707.134C444.812 703.099 487.739 695.2 495.138 693.813Z"/><path fill="#E1625A" d="M455.131 636.537C461.331 635.558 476.696 638.447 483.323 639.602C487.173 640.273 489.342 640.723 491.361 643.815C485.065 644.405 468.848 641.231 461.969 640.154C458.32 639.584 456.91 639.275 455.131 636.537Z"/><path fill="#E1625A" d="M423.234 653.118C424.25 653.791 423.938 653.605 424.695 654.661C424.547 657.711 420.285 662.66 419.795 665.983C419.115 670.602 422.578 679.272 420.559 682.934C411.686 678.444 416.168 659.454 423.234 653.118Z"/><path fill="#E1625A" d="M526.013 621.357C531.52 620.144 555.379 622.982 558.824 627.63C556.65 627.926 552.312 627.909 550.261 627.432C544.622 626.118 529.567 625.899 526.013 621.357Z"/><path fill="#E1625A" d="M783.76 542.573L784.51 542.637C800 544.007 823.5 547.911 838.98 551.424C840.228 551.707 841.528 553.033 842.365 554.035C834.926 554.462 795.829 546.333 785.542 545.138C784.378 545.003 784.19 543.704 783.76 542.573Z"/><path fill="#E1625A" d="M854.787 564.054C857.924 567.101 856.398 575.702 855.856 579.636C851.948 576.831 853.249 567.982 854.787 564.054Z"/><path fill="#E1625A" d="M702.513 294.193C703.617 294.948 703.119 294.492 703.717 295.956C702.329 302.451 687.799 304.693 682.186 304.642C681.131 303.821 681.591 304.32 680.996 302.892C682.967 300.988 691.569 301.62 695.634 299.324C699.017 297.413 699.427 296.91 702.513 294.193Z"/><path fill="#E1625A" d="M678.482 271.067L679.479 272.182C680.46 275.696 678.121 280.206 676.729 283.636C678.052 286.083 679.655 287.702 677.876 290.07C669.824 284.533 674.942 278.635 678.482 271.067Z"/><path fill="#EE675F" d="M691.318 256.711C691.81 256.684 692.303 256.666 692.796 256.655C696.152 256.569 703.827 257.796 703.759 262.054C701.9 262.614 701.258 261.926 699.102 261.123C693.611 259.128 692.237 260.69 686.61 259.738L686.283 258.917C688.045 257.432 689.138 257.292 691.318 256.711Z"/><path fill="#E1625A" d="M695.521 268.534C701.576 271.702 698.943 276.283 695.472 280.097C689.527 277.654 692.531 271.97 695.521 268.534Z"/><path fill="#E1625A" d="M666.911 266.803C672.785 268.947 671.514 273.128 669.866 277.767C667.926 277.563 667.846 277.576 666.32 276.444C664.546 273.447 664.435 269.433 666.911 266.803Z"/><path fill="#E1625A" d="M664.004 257.205C666.935 256.944 669.862 256.977 671.666 259.592C670.239 260.506 670.187 260.106 668.001 259.88C665.67 259.208 664.578 261.274 661.679 260.713C661.96 259.014 662.742 258.517 664.004 257.205Z"/><path fill="#EE675F" d="M388.443 275.247C393.393 273.925 398.495 276.788 399.948 281.702C401.401 286.616 398.677 291.794 393.804 293.378C390.535 294.441 386.946 293.645 384.432 291.299C381.918 288.953 380.876 285.427 381.709 282.091C382.543 278.755 385.121 276.134 388.443 275.247Z"/><path fill="#EE675F" d="M416.654 244.802C419.052 243.79 421.811 244.154 423.865 245.754C425.919 247.355 426.946 249.941 426.551 252.515C426.156 255.089 424.4 257.248 421.961 258.159C418.298 259.526 414.214 257.713 412.77 254.079C411.326 250.445 413.052 246.323 416.654 244.802Z"/><path fill="#E1625A" d="M596.653 508.679C599.847 509.997 601.986 513.569 604.685 515.001C608.308 516.923 613.582 516.832 616.786 519.897C608.931 521.808 598.516 517.295 596.653 508.679Z"/><path fill="#E1625A" d="M580.871 504.364C583.875 504.124 588.116 503.511 590.619 505.189L590.734 506.351C589.01 506.472 587.285 506.573 585.559 506.655C583.547 506.74 581.572 506.922 580.179 505.635L580.871 504.364Z"/><path fill="#E1625A" d="M432.442 281.903C435.215 281.59 437.716 283.584 438.03 286.358C438.344 289.131 436.352 291.634 433.58 291.95C430.805 292.267 428.299 290.272 427.985 287.496C427.67 284.72 429.666 282.215 432.442 281.903Z"/><path fill="#E1625A" d="M751.922 407.612C749.337 405.969 738.921 399.717 737.688 397.796L738.263 397.091C745.584 396.661 773.414 420.617 777.004 427.11C776.456 428.074 776.594 428.002 775.836 428.774C770.626 424.718 760.473 414.471 754.093 409.032C751.38 429.636 753.845 439.197 758.449 459.722C757.936 460.301 756.772 461.699 756.233 462.107C756.331 460.916 754.452 453.791 754.108 452.299C750.421 436.3 746.906 423.886 751.922 407.612Z"/><path fill="#E1625A" d="M819.709 585.019C823.455 585.077 834.849 582.979 836.976 583.887L837.032 584.871C834.019 587.291 799.654 592.013 796.038 590.662C798.727 587.248 813.354 585.921 818.457 585.071L819.709 585.019Z"/><path fill="#E1625A" d="M647.759 402.643C647.723 402.328 647.422 400.335 647.318 400.238C642.951 396.146 632.682 387.052 630.119 381.711L630.628 381.176C635.18 382.679 644.07 394.591 647.537 396.645L648.467 394.239C648.581 396.412 649.256 401.049 647.759 402.643Z"/><path fill="#E1625A" d="M775.86 605.728C782.069 602.218 787.473 601.62 792.186 597.559C793.603 596.339 794.359 593.885 795.818 594.081C796.622 602.011 790.484 603.083 784.134 605.174C782.397 605.746 778.628 606.828 776.916 606.765L775.86 605.728Z"/><path fill="#E1625A" d="M791.166 734.89L792.23 735.035C792.968 737.952 796.633 739.712 795.679 742.389C793.888 742.734 794.761 742.784 792.976 742.127L794.577 741.543L794.83 740.55C789.747 736.302 780.145 743.855 774.08 743.454L773.948 742.503C775.847 739.466 786.36 738.214 791.048 735.912L791.166 734.89Z"/><path fill="#E1625A" d="M667.851 234.147L668.684 233.348C667.1 229.692 666.435 228.706 666.177 224.787L666.749 224.59C669.138 227.69 671.986 232.529 674.298 235.039C673.221 235.395 672.525 235.52 671.686 236.292C671.001 235.744 671.102 235.897 670.206 235.616L667.851 234.147Z"/><path fill="#FEFDFE" fill-opacity="0.0078431377" d="M644.564 716.661C648.088 718.417 652.329 719.352 656.176 720.178L655.121 720.815L656.842 721.794L656.844 722.591C654.022 723.313 654.471 722.59 652.503 722.646C649.352 721.927 646.748 718.91 644.564 716.661Z"/><path fill="#EE675F" fill-opacity="0.96862745" d="M808.908 574.447L810.361 573.49C814.081 576.76 819.11 580.168 819.709 585.019L818.457 585.071C816.472 581.235 812.105 577.448 808.908 574.447Z"/><path fill="#E1625A" d="M705.748 584.977L706.503 585.705L706.225 587.367C703.446 587.903 701.648 588.492 698.896 587.805C699.271 586.635 699.214 587.113 698.926 585.85C700.744 585.728 703.846 585.227 705.748 584.977Z"/><path fill="#E1625A" d="M996.252 526.257C1000.07 525.964 1003.88 525.658 1007.7 525.802C1025.54 526.469 1042.37 534.246 1054.43 547.399C1092.51 588.478 1070.09 657.8 1017.27 672.322C1008.15 674.828 1001.36 675.147 992.146 674.771C959.016 671.975 929.781 651.517 924.348 616.721C921.173 596.387 927.836 580.151 939.643 564.138C937.824 560.689 932.967 552.943 935.59 549.231C938.847 544.622 948.056 549.869 951.704 551.992C965.976 536.972 975.346 530.31 996.252 526.257ZM952.987 556.232C947.36 553.898 942.581 551.982 936.675 550.356C938.955 554.984 941.344 559.558 943.841 564.072C931.946 580.995 924.257 596.554 928.195 618.375C931.123 634.372 940.375 648.513 953.86 657.6C963.119 663.973 973.334 667.983 984.276 670.358C1004.41 673.657 1022.01 669.847 1038.63 657.933C1054.87 646.117 1065.76 628.332 1068.9 608.488C1074.68 571.854 1052.51 536.411 1014.88 529.917C1011.95 529.412 1008.08 529.224 1005.12 529.346C985.37 530.153 970.718 536.881 957.262 551.466C955.818 553.038 954.393 554.627 952.987 556.232Z"/><path fill="#E1625A" d="M1001.58 560.924C1019.04 558.854 1030.22 564.731 1032.79 582.674C1036.84 585.093 1038.67 585.934 1041.7 589.552C1049.72 599.152 1047.2 613.769 1037.26 621.043C1028.75 627.27 1015.98 626.937 1005.97 625.426L1005.31 624.062L1004.4 624.728L1005.19 625.217L1005.04 624.138C1011.33 620.366 1021.29 624.385 1030.12 620.828C1035.38 618.664 1039.53 614.465 1041.63 609.188C1045.86 598.689 1040.56 589.586 1030.26 585.975L1029.48 585.703L1029.45 585.319C1027.66 567.4 1018.56 562.988 1001.49 564.588C988.224 568.913 989.437 573.246 981.722 581.562L981.336 581.975C980.456 582.097 979.577 582.227 978.7 582.365C964.581 584.598 955.711 594.873 958.131 610.258C960.856 627.584 987.077 619.325 994.979 624.682L994.905 625.411C987.189 627.652 972.131 627.592 964.852 623.511C959.896 620.769 956.29 616.102 954.889 610.613C951.93 599.19 957.775 587.495 967.989 582.093C972.175 579.879 975.135 579.255 979.694 578.177C986.751 568.813 989.839 563.892 1001.58 560.924Z"/><path fill="#E1625A" d="M998.512 598.729C999.009 598.931 999.391 599.121 999.786 599.494C1003.15 602.68 1001.81 630.379 1002.14 636.74C1004.01 635.139 1005.03 634.004 1007.39 633.294L1008.1 633.867C1007.03 637.963 1004.03 640.417 1001.07 643.314C1000.27 643.214 999.506 642.941 998.827 642.515C995.957 640.711 993.061 637.215 992.324 633.794L992.98 633.036C995.232 633.434 996.318 634.88 998.032 636.52C998.202 626.73 997.363 607.675 998.512 598.729Z"/><path fill="#E1625A" d="M437.071 470.202C457.489 469.5 471.965 473.692 488.599 485.581C493.522 485.546 504.835 484.201 506.866 489.416C506.245 493.363 502.334 495.682 499.158 498.177C505.621 507.686 510.945 518.209 512.779 529.663C515.777 548.275 511.218 567.314 500.116 582.548C489.731 596.418 474.297 605.633 457.163 608.191C456.593 608.275 456.022 608.352 455.45 608.42C434.147 611.029 413.77 607.35 396.603 593.71C382.673 582.441 373.795 566.094 371.926 548.271C367.518 506.43 395.266 474.182 437.071 470.202ZM458.702 604.305C476.43 600.413 490.053 591.691 499.907 576.138C509.24 561.277 512.325 543.331 508.493 526.205C505.605 513.304 500.656 508.573 495.798 497.88C498.626 494.454 500.422 492.545 503.569 489.443L487.63 489.295C472.239 479.052 453.464 470.476 434.334 473.807C395.472 478.902 370.601 510.891 375.816 549.668C378.076 566.741 387.124 582.181 400.914 592.495C416.476 604.069 437.211 607.784 456.152 604.795C457.007 604.66 457.858 604.496 458.702 604.305Z"/><path fill="#E1625A" d="M438.843 496.272C439.357 496.239 439.872 496.22 440.387 496.212C450.647 496.036 454.961 498.068 462.178 505.096C481.391 506.29 490.623 523.784 477.166 538.766C478.986 539.608 481.702 540.845 483.034 542.311C502.53 563.778 483.018 561.668 468.445 561.315C471.906 567.132 473.047 572.577 473.729 579.181C466.024 579.715 453.807 579.424 445.758 579.443L411.772 579.505C411.981 572.149 412.965 568.019 416.295 561.503C409.934 561.471 396.766 563.083 392.575 558.493C391.836 556.71 391.653 555.4 392.584 553.632C396.826 545.576 400.699 542.408 408.628 539.342C404.62 535.674 402.619 532.085 402.19 526.529C401.804 521.089 403.611 515.721 407.208 511.623C411.895 506.373 416.132 505.497 422.691 505.161C428.821 499.761 430.925 497.965 438.843 496.272ZM415.848 575.839C432.877 575.995 449.907 575.894 466.933 575.534L468.922 575.374C472.504 568.975 459.385 556.972 455 552.832C451.708 557.353 447.953 560.033 442.348 561.067C437.448 561.97 431.255 559.842 429.815 554.626C429.724 554.292 429.162 553.028 428.949 552.805C420.005 560.398 417.796 564.122 415.848 575.839ZM446.413 513.982C450.902 515.325 450.388 516.247 451.575 520.678C456.649 523.906 460.781 526.51 465.502 530.209C465.899 515.473 459.532 500.279 442.789 499.924C442.037 499.905 441.284 499.906 440.532 499.926C433.262 501.367 429.081 503.782 424.491 509.796C421.691 513.465 418.708 525.638 421.416 529.196C423.691 527.873 425.629 525.536 427.713 523.772C434.375 518.13 439.348 520.069 446.292 519.21L446.413 513.982ZM438.607 523.075C423.5 526.258 428.161 540.619 437.858 546.895C440.279 548.462 444.283 548.446 447.174 548.049C451.308 545.908 454.751 543.066 456.167 538.405C457.17 535.187 456.739 531.693 454.983 528.816C451.331 522.951 444.701 522.777 438.607 523.075ZM396.211 557.525C402.892 557.837 409.052 557.847 415.746 557.815C419.409 557.217 425.306 551.116 428.931 548.546C423.134 545.028 417.442 543.711 410.785 542.704C402.038 544.796 398.508 548.918 396.211 557.525ZM431.457 551.07C432.088 558.865 443.893 558.348 449.664 554.383L451.871 551.78L451.687 551.32L450.884 551.52C442.189 553.639 437.048 550.357 431.457 551.07ZM420.114 508.323C403.95 512.479 400.206 532.048 415.266 539.742L422.013 541.83C414.889 530.021 415.094 521.037 420.769 508.92C420.551 508.721 420.332 508.522 420.114 508.323ZM487.689 557.426C485.332 550.277 482.115 542.22 473.033 543.096C468.182 544.663 458.962 546.072 456.863 548.983C457.877 552.643 462.569 554.549 465.482 556.766C467.034 557.947 471.043 557.921 473.017 557.977C478.6 558.026 482.147 558.042 487.689 557.426ZM471.835 539.307C476.265 535.247 479.355 531.668 479.562 525.266C479.722 520.909 478.093 516.677 475.053 513.553C471.617 510.071 468.984 509.449 464.382 508.819C470.486 522.135 471.104 529.393 464.165 542.509C466.968 541.498 469.224 540.767 471.835 539.307Z"/><path fill="#E1625A" d="M952.24 239.146C982.614 234.869 1011.85 255.065 1022.53 283.05C1029.03 299.928 1028.5 318.706 1021.07 335.193C1004.24 372.133 963.628 384.756 927.921 368.258C920.454 364.074 917.326 361.297 911.307 355.434C906.487 358.086 875.633 373.996 872.964 374.106L872.675 373.059C873.602 371.057 875.342 369.462 877.002 368.033C886.433 359.911 892.977 350.576 900.132 340.475C895.889 332.889 892.66 324.458 891.579 315.815C889.399 297.806 894.476 279.669 905.689 265.41C917.617 250.007 933.07 241.616 952.24 239.146ZM892.288 357.454C890.437 359.706 888.525 361.907 886.554 364.056C888.917 362.743 892.74 360.46 895.084 359.397C900.719 356.526 905.863 354.195 911.656 351.642C920.419 357.671 924.017 363.443 935.488 367.427C971.044 379.775 1006.11 364.835 1019.73 329.044C1025.52 313.554 1024.9 296.398 1018.02 281.363C1011.04 265.878 997.534 252.428 981.524 246.52C965.174 240.562 947.114 241.44 931.419 248.956C902.505 262.573 885.152 301.551 899.758 331.11C901.301 334.234 902.798 337.384 904.308 340.523C901.21 345.878 896.056 352.184 892.288 357.454Z"/><path fill="#E1625A" d="M987.499 270.264C1005.27 269.556 996.762 272.364 1004.42 281.7L1004.91 282.287C1004.99 302.761 1005.17 323.233 1005.45 343.704C997.329 343.893 967.051 342.277 961.949 344.388C961.072 344.751 960.276 345.068 959.307 345.055C955.683 345.008 952.016 344.139 948.384 343.891C942.417 343.485 936.345 343.68 930.363 343.711L917.026 343.754C917.281 333.819 915.653 284.73 918.613 278.29C919.418 276.539 921.415 275.442 923.181 274.911C933.035 271.947 949.516 276.231 958.292 281.014C967.265 273.413 976.067 271.313 987.499 270.264ZM920.903 279.398C920.683 298.066 920.633 316.736 920.751 335.405C929.948 331.138 942.006 330.703 951.445 334.244C952.416 334.612 953.374 335.012 954.319 335.442C954.347 331.932 954.273 327.966 954.679 324.518C952.394 321.725 951.29 320.129 949.37 317.06C947.166 318.055 946.072 318.62 944.064 319.852C941.721 321.288 937.091 327.088 935.173 327.451C930.965 322.118 944.928 314.838 948.317 313.227C946.372 299.772 947.899 294.148 955.639 283.407C946.279 279.759 937.29 277.714 927.163 278.19C925.069 278.54 922.945 278.837 920.903 279.398ZM961.723 335.163C976.136 329.58 987.563 330.812 1001.92 335.752C1001.92 328.474 1002.5 289.223 1000.82 285.007C998.328 295.046 996.443 304.522 989.579 312.427C980.787 322.553 970.096 322.941 959.035 327.96C957.104 328.836 957.206 333.318 958.412 335.498L959.547 336.132L961.723 335.163ZM931.261 335.492C925.884 336.861 923.609 337.789 918.849 340.669C925.992 340.216 936.946 340.172 944.227 340.355C948.187 340.419 952.626 340.39 956.54 340.669C946.947 335.326 942.259 334.681 931.261 335.492ZM996.883 277.926C987.394 283.955 959.357 311.333 960.012 322.67C972.576 319.969 982.711 316.837 990.327 305.306C994.972 298.272 997.715 286.286 996.883 277.926ZM956.229 322.077L957.727 317.778C964.759 300.849 981.039 284.134 996.179 274.087C992.728 273.849 989.144 273.465 985.723 273.87C959.017 277.107 942.181 296.097 956.229 322.077ZM976.323 334.819C969.376 335.75 966.495 336.461 960.589 340.306L985.816 339.953L1002.09 340.106C993.788 336.652 985.56 333.892 976.323 334.819Z"/><defs><linearGradient id="gradient_0" gradientUnits="userSpaceOnUse" x1="893.83026" y1="359.4552" x2="890.64435" y2="358.05316"><stop offset="0" stop-color="white" stop-opacity="0"/><stop offset="1" stop-color="#F8EEF1" stop-opacity="0.043137256"/></linearGradient></defs><path fill="url(#gradient_0)" d="M892.288 357.454L894.344 356.999C895.334 358.319 895.021 357.57 895.084 359.397C892.74 360.46 888.917 362.743 886.554 364.056C888.525 361.907 890.437 359.706 892.288 357.454Z"/><path fill="#E1625A" d="M687.769 62.3333C713.64 59.6072 735.096 78.9215 735.907 104.802C736.453 122.202 724.171 128.937 718.44 142.44C712.29 156.932 721.243 160.517 700.308 160.455C691.662 160.712 680.49 161.049 672.005 160.513C671.166 154.455 670.2 146.577 667.443 141.179C661.74 130.011 654.495 124.745 651.983 111.377C649.995 100.533 652.41 89.3432 658.693 80.2852C666.125 69.5761 675.367 64.6689 687.769 62.3333ZM680.258 113.132C676.005 112.553 671.337 111.253 672.102 105.653C672.301 104.091 673.137 102.68 674.413 101.757C680.058 97.7498 683.42 105.454 684.926 109.421C686.697 104.308 688.393 96.0873 695.482 98.7839C697.696 102.339 698.896 104.857 700.678 108.605C703.197 104.63 706.49 98.6469 712.199 101.988C713.384 103.333 713.929 104.156 713.807 106.038C713.657 108.285 712.526 110.352 710.716 111.69C709.427 112.644 707.218 113.477 705.691 114.082C703.196 128.489 701.476 142.298 699.242 156.658C703.161 156.573 707.568 156.582 711.438 156.361C714.178 137.503 718.014 136.353 727.307 121.589C742.658 97.2024 718.051 62.3413 689.15 66.0178C678.081 67.6201 669.458 72.2108 662.678 81.3187C656.685 89.3705 654.149 99.4798 655.631 109.408C657.508 121.623 664.443 127.383 669.915 137.698C672.794 143.124 674.201 150.967 675.375 157.09C678.987 157.013 684.338 156.745 687.795 156.879C685.142 144.858 681.822 125.25 680.258 113.132ZM696.414 152.438C697.805 139.205 699.558 126.013 701.671 112.876C695.965 112.788 690.258 112.765 684.551 112.806C685.881 124.751 688.848 144.06 691.23 155.926C692.431 156.824 693.568 156.582 695.303 156.683C696.306 155.332 696.231 154.171 696.414 152.438Z"/><path fill="#E1625A" d="M584.089 214.165C583.808 214.516 583.813 214.537 583.361 214.894C580.343 217.273 547.251 216.574 542.269 215.698C540.66 215.414 539.21 214.668 538.307 213.265C535.704 209.221 536.119 175.315 537.178 169.172C537.371 168.049 537.82 165.989 538.793 165.348C540.776 164.042 543.194 163.664 545.517 163.426C555.087 162.446 597.027 162.082 605.202 164.079C607.431 164.624 607.977 165.239 609.164 167.044C611.444 178.428 610.502 191.405 610.798 203.013C611.051 212.968 607.747 214.4 598.987 216.192C598.992 221.754 598.818 223.46 597.973 228.998C595.388 226.544 592.822 224.069 590.277 221.573C588.282 223.034 584.579 226.357 582.592 226.633L581.372 226.292C580.606 222.178 586.979 216.316 586.74 213.497C585.297 213.524 585.396 213.529 584.089 214.165ZM541.752 211.943C550.775 213.041 573.784 213.153 583.21 212.13C566.499 201.505 586.52 176.754 600.42 194.739C608.238 204.855 591.598 210.566 590.721 217.509C591.984 219.361 592.433 219.989 594.658 219.355C596.094 217.552 595.912 215.688 596.075 213.291C599.445 212.676 602.798 211.975 606.132 211.187C607.08 197.439 607.035 183.641 605.997 169.9C605.497 168.86 605.191 167.76 603.863 167.62C589.566 166.107 554.677 165.619 541.464 167.345C540.1 177.926 540.103 201.435 541.752 211.943ZM592.301 207.596L593.681 205.667C593.086 203.063 592.614 203.293 593.177 200.87C595.327 199.782 596.308 199.783 597.237 197.986C595.806 193.271 590.554 192.09 586.187 192.582C576.506 200.6 580.741 211.751 592.301 207.596Z"/><path fill="#E1625A" d="M545.886 178.199L579.757 178C583.034 177.977 596.42 177.062 598.073 179.5L597.647 181.277C590.145 181.563 551.612 182.078 545.906 180.815L545.355 179.805L545.886 178.199Z"/><path fill="#E1625A" d="M552.085 189.239C556.523 189.149 569.088 188.292 572.1 190.789L572.149 191.977C570.797 193.028 568.669 192.912 566.865 193.032L558.844 193.099C555.683 193.107 548.881 193.443 546.626 191.202L546.742 190.018C547.984 189.341 550.556 189.345 552.085 189.239Z"/><path fill="#E1625A" d="M544.348 201.896C548.977 201.689 559.757 200.685 564.149 202.692C565.239 203.19 565.185 204.101 565.43 205.22C561.119 205.6 549.923 206.291 545.763 204.61C544.602 204.141 544.645 203.112 544.348 201.896Z"/><path fill="#E1625A" d="M944.519 152.52C951.93 153.601 992.178 168.824 992.982 173.882C990.125 176.514 979.479 180.298 975.509 181.849C976.007 186.228 976.521 191.305 975.864 195.674C973.098 214.212 946.974 215.929 932.632 213.242C924.452 211.709 917.282 209.04 912.45 202.042C909.207 194.973 910.316 185.68 911.138 178.083L900.042 172.961C900.018 176.441 900.011 180.021 900.052 183.486C900.109 188.491 900.493 188.272 903.141 192.029C902.626 194.083 901.322 194.725 899.55 196.419C900.223 198.69 902.067 203.746 901.325 205.835C900.369 208.523 897.375 208.725 895.058 207.625C891.936 200.056 902.66 206.076 893.289 192.179C898.355 185.515 896.538 175.957 896.011 167.632C907.889 162.922 932.123 155.414 944.519 152.52ZM902.113 169.475C926.582 181.56 944.524 193.16 972.054 178.585L973.188 177.303C967.234 173.967 946.986 175.814 943.792 172.287C947.584 167.707 977.809 174.199 986.846 172.936C977.946 169.141 953.182 157.599 945.604 156.168C932.39 159.157 915.121 165.035 902.113 169.475ZM969.852 201.179C973.308 194.831 972.447 190.163 971.9 182.988C947.589 191.727 937.474 191.701 914.19 179.412C913.953 186.252 912.529 197.755 917.771 202.913C928.601 213.57 960.146 212.571 969.852 201.179Z"/><path fill="#E1625A" d="M1022.65 411.54C1027.32 411.41 1035.5 410.431 1038.94 413.889C1041.1 419.487 1040.45 456.363 1040.4 464.412C1042.79 464.393 1048.63 464.101 1049.55 466.711C1043.96 468.64 976.963 468.897 972.583 466.388L972.869 465.5C975.198 464.086 977.787 464.466 980.569 464.525C980.405 459.585 979.594 449.809 981.089 444.982C981.443 443.841 982.594 443.678 983.679 443.282C988.755 443.271 993.048 443.297 998.118 443.636C998.12 447.652 997.77 462.293 999.17 464.958C1003.16 460.479 998.391 430.975 1002.31 423.697C1005.85 421.492 1014.01 422.291 1018.44 422.388C1018.98 435.436 1017.53 451.697 1019.07 464.229L1019.56 464.461C1023.51 454.83 1018.56 420.578 1022.65 411.54ZM1024.38 464.406L1036.87 464.445C1036 448.426 1037 431.474 1036.32 415.438C1032.45 415.253 1028.79 415.077 1024.91 415.087C1024.68 431.397 1024.22 448.139 1024.38 464.406ZM1004.16 464.454L1012.93 464.455L1014.85 464.347C1016.06 459.702 1015.16 432.042 1015.23 425.583L1007.02 425.721L1005.2 426.332C1003.81 430.366 1004.39 457.705 1004.16 464.454ZM984.178 464.49C986.414 464.492 992.694 464.644 994.609 464.386L994.574 447.155C990.945 447.076 987.157 446.934 983.539 446.984C983.571 452.147 983.404 459.603 984.178 464.49Z"/><path fill="#E1625A" d="M864.536 647.006C866.282 646.986 866.462 646.894 867.883 647.773C869.979 651.652 868.96 666.917 868.862 672.021C873.568 671.934 880.566 670.692 884.508 672.922C887.644 676.863 887.817 687.513 884.924 691.24C883.328 693.294 868.455 692.368 865.77 692.303C861.712 692.189 845.96 692.521 843.466 689.646C841.427 683.291 841.463 654.997 843.775 648.433C846.028 646.471 860.592 647.075 864.536 647.006ZM845.904 650.826C845.8 656.334 844.634 684.518 846.889 688.166C848.97 688.647 849.286 688.753 851.278 688.044C854.04 685.356 852.658 678.745 852.687 674.809C854.319 670.617 861.195 672.032 865.313 672.226C865.263 665.115 865.26 658.004 865.303 650.894L845.904 650.826ZM883.026 688.531C882.959 686.408 883.272 685.07 882.307 683.451C873.606 682.637 864.641 683.405 856.176 682.909C856.221 684.818 855.918 686.793 856.811 688.152C862.997 688.646 876.679 688.806 883.026 688.531Z"/><path fill="#E1625A" d="M840.249 304.208C849.689 303.51 850.916 305.595 855.542 313.417C860.584 313.327 864.902 314.355 867.927 318.579C872.841 325.442 866.779 330.266 861.928 333.645C861.28 345.278 854.802 347.201 844.662 344.82L839.203 343.305C830.615 346.575 821.754 348.477 825.494 335.02C820.887 330.745 815.2 324.325 820.381 317.668C823.297 313.922 827.599 313.887 831.984 313.427C834.779 308.581 835.503 306.965 840.249 304.208ZM834.541 318.1C820.339 313.547 817.126 326.593 830.124 333.074C829.176 335.293 827.953 337.617 827.964 339.997C829.811 344.569 835.787 339.742 839.522 339.684C850.48 343.473 855.864 346.426 858.148 332.347C861.122 330.182 865.306 327.706 865.481 323.749C865.814 316.267 857.47 316.846 852.701 317.083C850.712 311.902 850.225 308 843.952 307.291C837.679 308.575 836.732 312.815 834.541 318.1Z"/><path fill="#E1625A" d="M806.557 229.35C814.635 228.949 827.234 228.816 834.886 229.351C843.526 229.955 840.296 257.504 839.824 263.635C839.698 265.269 837.889 266.403 836.624 267.125C832.068 267.326 806.206 269.031 804.428 264.834C801.374 257.626 802.299 242.537 803.257 234.451C803.577 231.747 804.411 230.819 806.557 229.35ZM806.496 263.404C816.303 263.737 826.117 263.754 835.925 263.453C837.548 260.842 836.445 237.126 835.935 232.822C826.576 232.494 816.003 232.376 806.638 232.934C806.247 241.996 805.885 254.36 806.496 263.404Z"/><path fill="#E1625A" d="M820.381 239.103C821.496 239.406 821.493 239.553 822.371 240.345C824.356 244.781 823.369 256.346 822.758 261.352C821.59 261.556 822.17 261.586 821.031 261.002C819.393 257.212 820.221 244.021 820.381 239.103Z"/><path fill="#E1625A" d="M556.922 545.765C568.271 543.972 578.922 551.732 580.697 563.088C582.471 574.443 574.696 585.084 563.341 586.841C552.011 588.594 541.402 580.838 539.631 569.508C537.86 558.178 545.597 547.554 556.922 545.765ZM555.03 569.728C551.594 564.642 551.664 556.4 559.378 556.579C561.896 556.649 564.282 557.719 566.008 559.554C569.188 563.002 567.899 567.333 564.551 570.088C567.466 572.17 571.581 574.872 573.915 577.437C574.71 575.796 576.05 573.586 576.565 571.898C579.421 562.521 575.006 553.017 565.737 550.028C561.077 548.503 555.994 548.972 551.691 551.323C540.637 557.337 541.304 567.751 546.802 577.479C549.938 574.086 551.503 572.66 555.03 569.728ZM571.594 579.334C567.105 574.936 565.558 574.065 559.574 572.044C555.936 572.732 551.467 574.244 550.518 578.207C553.002 586.805 566.078 583.911 571.594 579.334Z"/><path fill="#EE675F" d="M559.574 572.044C561.036 571.283 562.969 570.658 564.551 570.088C567.466 572.17 571.581 574.872 573.915 577.437C572.666 579.057 573.085 579.084 571.594 579.334C567.105 574.936 565.558 574.065 559.574 572.044Z"/><path fill="#E1625A" d="M878.896 492.813C889.687 489.93 900.793 496.246 903.834 506.996C906.875 517.746 900.724 528.947 890.023 532.146C882.959 534.259 875.305 532.401 869.994 527.286C864.683 522.17 862.539 514.59 864.383 507.449C866.226 500.309 871.773 494.716 878.896 492.813ZM888.145 528.959C894.047 527.504 898.705 522.976 900.329 517.117C901.953 511.257 900.291 504.977 895.98 500.69C891.669 496.402 885.382 494.774 879.533 496.432C870.702 498.934 865.506 508.055 867.856 516.929C870.206 525.804 879.233 531.157 888.145 528.959Z"/><path fill="#E1625A" d="M886.523 498.716L888.227 499.618C890.5 502.833 889.65 510.187 889.509 514.319C884.291 514.413 879.361 514.256 874.147 514.091C872.898 514.086 873.519 514.187 872.336 513.43L872.381 511.824C875.248 509.583 881.937 510.391 885.934 510.461C886.079 506.544 886.276 502.628 886.523 498.716Z"/><path fill="#E1625A" d="M677.563 163.595C685.04 163.369 709.873 161.126 713.976 167.257C714.939 171.006 713.44 173.121 709.948 174.32C700.588 174.645 691.174 174.591 681.811 174.621C674.379 174.644 670.055 174.083 673.08 165.216C674.808 163.532 674.843 163.988 677.563 163.595ZM701.659 170.609C703.175 170.513 706.62 170.403 707.914 169.994L708.427 169.05L708.886 169.669L709.4 169.013C704.233 166.579 690.703 167.203 684.642 167.313C681.989 167.35 679.216 167.121 676.853 168.138L676.882 169.454L676.485 168.335L675.997 169.149C680.084 171.367 696.553 170.663 701.659 170.609Z"/><path fill="#E1625A" d="M1015.55 517.548C1030.96 516.766 1052.81 530.195 1062.38 541.594C1069.95 550.614 1081.06 567.92 1080.33 579.814C1078.22 579.151 1077.82 578.817 1077.15 576.45C1073.3 562.946 1067.37 551.649 1057.34 541.445C1051.54 535.467 1044.71 530.587 1037.17 527.037C1031.8 524.517 1022.5 522.332 1016.81 519.89C1016.32 518.981 1015.9 518.201 1015.55 517.548Z"/><path fill="#EE675F" d="M305.968 311.846C308.765 314.911 310.403 318.089 312.456 321.662L319.01 324.641C309.576 330.894 311.663 328.618 306.701 337.77L305.802 337.667C300.688 327.319 301.143 328.291 289.848 325.201C301.172 322.856 300.992 321.628 305.968 311.846Z"/><path fill="#E1625A" d="M416.123 465.783C417.262 466.371 416.755 465.967 417.508 467.229C416.61 468.636 403.402 474.508 399.591 476.868C394.722 479.889 390.236 483.488 386.229 487.584C381.266 492.682 376.242 499.596 372.896 505.906C370.87 509.726 370.102 513.664 367.648 517.605C366.994 517.215 366.114 516.522 366.22 515.693C369.008 493.932 397.205 470.042 416.123 465.783Z"/><path fill="#EE675F" d="M436.644 151.371C438.943 152.326 441.886 158.379 444.542 160.475C446.703 162.179 448.237 163.015 450.588 164.351C447.587 165.783 444.637 167.318 441.741 168.953C440.595 170.883 439.195 174.094 438.202 176.207C434.561 174.285 436.705 168.893 424.55 164.33C427.862 162.808 429.929 161.74 433.056 159.872C434.406 157.508 435.631 153.999 436.644 151.371Z"/><path fill="#E1625A" d="M360.819 542.635C364.144 543.798 364.924 551.113 365.643 554.839C368.404 569.162 372.601 578.36 382.909 589.018C385.605 591.807 389.705 596.032 391.51 599.5C387.94 599.019 383.72 595.439 381.283 592.902C367.902 578.97 361.015 561.708 360.819 542.635Z"/><path fill="#E1625A" d="M1041.84 370.963C1042.69 371.751 1043.56 373.271 1044.18 374.257C1047.79 380.056 1049.58 379.914 1055.72 381.315C1049.06 384.369 1046.96 384.654 1043.59 391.076C1043.31 391.143 1042.65 391.039 1042.33 391.008C1040.99 389.051 1039.63 387.106 1038.25 385.173C1035.93 384.134 1032.39 382.972 1029.91 382.08L1036.93 378.994C1038.46 377.073 1040.53 373.236 1041.84 370.963Z"/><path fill="#E1625A" d="M637.115 46.354C643.406 48.6735 653.992 59.145 656.088 65.3972C649.467 64.863 638.51 52.7761 637.115 46.354Z"/><path fill="#E1625A" d="M614.093 100.222C618.696 99.9546 633.42 99.0004 637.519 101.558C638.527 102.187 638.288 103.028 638.317 104.072C633.388 104.193 616.015 105.91 613.691 101.51L614.093 100.222Z"/><path fill="#E1625A" d="M748.742 46.101C750.349 47.3391 749.901 46.5665 750.324 48.3712C748.718 52.775 738.162 61.8842 734.268 65.4341L732.829 64.3396L732.743 62.8528C734.416 58.7583 745.039 49.2819 748.742 46.101Z"/><path fill="#E1625A" d="M751.145 100.165C756.387 99.9323 770.538 98.4599 773.621 102.576L773.149 103.932C768.216 104.079 754.869 105.079 751.17 103.179C750.39 101.408 750.45 102.212 751.145 100.165Z"/><path fill="#E1625A" d="M691.9 21.4698C697.679 23.8786 695.769 42.0795 694.917 47.4256C693.622 47.0782 693.598 46.923 692.627 46.0391C690.737 41.41 691.457 26.7788 691.9 21.4698Z"/><path fill="#E1625A" d="M692.384 177.661C695.957 177.545 702.265 176.865 704.866 179.764L704.293 180.692C702.001 181.816 699.278 181.539 696.668 181.536C692.263 181.619 686.115 182.163 682.496 179.475L682.902 178.585C685.611 177.373 689.331 177.658 692.384 177.661Z"/><path fill="#E1625A" d="M509.87 476.071C513.373 476.461 519.42 476.339 521.467 479.193C521.023 481.664 520.452 481.634 518.609 483.762L513.866 489.188C511.966 484.498 511.116 480.944 509.87 476.071Z"/><path fill="#E1625A" d="M940.719 378.473C944.014 378.445 958.236 380.043 961.537 381.543C962.448 381.957 962.224 382.21 962.464 383.347C957.499 383.952 947.632 384.162 943.027 381.956C941.15 381.057 941.229 380.201 940.719 378.473Z"/><path fill="#E1625A" d="M897.756 265.481C898.403 265.871 898.634 266.198 899.184 266.745C899.539 269.897 893.326 281.015 891.541 285.9C885.542 282.894 895.02 268.885 897.756 265.481Z"/><path fill="#E1625A" d="M307.041 506.883C308.509 506.338 310.158 506.631 311.35 507.647C312.542 508.663 313.091 510.245 312.786 511.782C312.481 513.319 311.37 514.57 309.88 515.054C307.641 515.782 305.231 514.584 304.458 512.36C303.685 510.135 304.833 507.701 307.041 506.883Z"/><path fill="#E1625A" d="M835.777 178.312C837.182 177.597 838.864 177.706 840.165 178.595C841.467 179.484 842.179 181.012 842.025 182.581C841.87 184.15 840.873 185.509 839.423 186.127C837.284 187.039 834.807 186.091 833.823 183.982C832.84 181.874 833.704 179.366 835.777 178.312Z"/><path fill="#E1625A" d="M413.403 62.4097C415.6 61.9829 417.742 63.365 418.259 65.5427C418.776 67.7204 417.484 69.9184 415.33 70.5252C413.856 70.9406 412.272 70.5144 411.205 69.4148C410.138 68.3152 409.759 66.7192 410.218 65.2571C410.676 63.795 411.899 62.7019 413.403 62.4097Z"/><path fill="#E1625A" d="M437.501 769.581C439.522 768.548 441.997 769.358 443.016 771.387C444.035 773.416 443.207 775.886 441.171 776.89C439.156 777.885 436.717 777.066 435.708 775.058C434.7 773.05 435.5 770.604 437.501 769.581Z"/><path fill="#E1625A" d="M993.487 743.946C994.765 743.251 996.319 743.297 997.553 744.067C998.788 744.837 999.513 746.212 999.452 747.666C999.39 749.12 998.552 750.429 997.256 751.092C995.288 752.099 992.876 751.337 991.844 749.381C990.813 747.425 991.545 745.003 993.487 743.946Z"/><path fill="#E1625A" d="M922.062 534.272C923.956 533.313 926.27 534.02 927.306 535.874C928.341 537.729 927.729 540.07 925.919 541.18C924.68 541.94 923.126 541.96 921.868 541.232C920.611 540.505 919.853 539.147 919.893 537.695C919.933 536.242 920.766 534.929 922.062 534.272Z"/><path fill="#E1625A" d="M564.807 464.222C566.652 463.354 568.852 464.107 569.78 465.923C570.707 467.739 570.027 469.963 568.243 470.95C567.036 471.617 565.561 471.574 564.395 470.836C563.229 470.099 562.558 468.784 562.644 467.407C562.729 466.03 563.558 464.809 564.807 464.222Z"/><path fill="#E1625A" d="M543.338 455.962C547.053 455.629 553.2 455.223 553.677 459.875C549.722 460.43 544.241 460.574 543.338 455.962Z"/><path fill="#E1625A" d="M541.771 468.852C543.587 468.887 545.393 469.117 547.159 469.537C549.119 470.011 549.729 470.434 550.608 471.903L550.029 472.983C547.336 472.82 541.264 472.837 540.519 469.961L541.771 468.852Z"/><path fill="#E1625A" d="M549.938 478.874C551.684 478.845 552.696 478.927 553.657 480.307C553.016 482.375 552.736 482.165 551.061 483.759C549.288 484.007 548.453 484.022 547.359 482.731C548.064 480.227 547.938 480.893 549.938 478.874Z"/></svg>