<svg xmlns="http://www.w3.org/2000/svg" fill="none" viewBox="11.46 13.68 179.4 34.82">
<path d="M49.3339 21.478C56.7838 21.2697 62.9961 27.1319 63.2196 34.5813C63.4433 42.0307 57.5942 48.2552 50.1451 48.4943C42.6744 48.734 36.4278 42.8639 36.2035 35.3927C35.9792 27.9214 41.8621 21.6869 49.3339 21.478Z" fill="#902B24"/>
<path d="M49.0247 23.4173C55.3903 23.0389 60.867 27.872 61.2828 34.2354C61.6986 40.5991 56.8978 46.1039 50.5371 46.5574C44.1229 47.0147 38.5617 42.1648 38.1423 35.7479C37.7229 29.3312 42.6056 23.7988 49.0247 23.4173Z" fill="#E9695C"/>
<path d="M48.1056 25.2426C53.5283 24.3554 58.6344 28.0592 59.4748 33.4892C60.3149 38.9192 56.5673 43.9933 51.1302 44.7863C45.7591 45.5701 40.7602 41.8778 39.9302 36.5135C39.1002 31.1496 42.749 26.1191 48.1056 25.2426Z" fill="#CF3130"/>
<path d="M48.4368 27.116C52.8117 26.401 56.9367 29.3714 57.6453 33.7474C58.3539 38.123 55.3773 42.2437 51.0005 42.9459C46.6325 43.6467 42.5225 40.6778 41.8153 36.3109C41.108 31.9439 44.0712 27.8295 48.4368 27.116Z" fill="#902B24"/>
<path d="M48.6427 28.9806C51.969 28.3824 55.1515 30.5902 55.7565 33.9151C56.3616 37.24 54.1608 40.4273 50.837 41.0394C47.5035 41.6533 44.3046 39.4445 43.6978 36.1095C43.0907 32.7745 45.3065 29.5804 48.6427 28.9806Z" fill="#CF3130"/>
<path d="M49.4666 30.7288C51.8178 30.5847 53.8383 32.3791 53.9725 34.7308C54.107 37.0827 52.3037 39.0955 49.9515 39.2197C47.6134 39.3434 45.6151 37.5533 45.4816 35.2159C45.3482 32.8782 47.1297 30.8724 49.4666 30.7288Z" fill="#E9695C"/>
<path d="M49.6197 32.275C51.1272 32.225 52.3935 33.3989 52.4576 34.9062C52.5217 36.4131 51.3596 37.6902 49.8532 37.7689C48.3266 37.848 47.0284 36.667 46.9635 35.1399C46.8985 33.6124 48.0917 32.3255 49.6197 32.275Z" fill="#902B24"/>
<path d="M25.3266 13.6777C24.3138 13.8135 12.3654 18.5326 11.8333 19.0305C11.747 19.8897 11.8451 21.7126 11.8356 22.6682L11.7562 22.8536C11.4335 23.3937 11.604 23.6137 11.6021 24.2071C11.5991 25.1286 11.343 26.1049 11.538 27.0139C11.6083 27.3226 11.7189 27.3885 11.9439 27.5258C13.799 27.4783 11.993 24.9679 12.6923 23.8859C12.9223 24.4113 13.2152 25.3785 13.4271 25.7879L18.966 39.8443C19.9467 42.3259 21.0721 45.3797 22.2093 47.7453C23.9366 47.7526 25.7187 47.7827 27.4415 47.7369C28.1599 46.3743 35.9813 26.8315 36.0001 26.3959C36.4119 25.5991 37.2776 23.2638 37.5985 22.4134C36.001 22.3605 33.446 22.3422 31.8711 22.4607C31.9614 21.9759 32.0824 21.5907 32.2251 21.1194C33.9375 20.6405 36.4563 19.5565 38.3332 18.9405C34.859 17.3666 31.2238 16.0374 27.7032 14.5635C26.9241 14.2374 26.1298 13.9392 25.3266 13.6777ZM12.3818 19.2083C13.4507 19.1926 16.9284 20.8002 17.8574 21.1736L17.9261 21.2804C18.0116 21.6266 18.0998 22.0297 18.2084 22.3646C16.7937 22.3963 13.4213 22.3076 12.2224 22.4821C12.2696 21.4335 12.2249 20.2907 12.2018 19.2335C12.2502 19.2171 12.3106 19.2093 12.3818 19.2083ZM18.8889 22.6247C20.306 22.6145 24.0685 24.5524 25.0871 25.105C26.6102 24.183 29.7793 22.6687 31.5469 22.6285C31.2918 23.684 30.8818 24.4659 30.6992 25.2546C30.1699 26.4296 29.6561 27.9448 29.1985 29.1799L26.7693 35.7389C26.3052 36.9952 25.6815 38.8855 25.052 39.9999C23.3928 35.2811 21.369 30.4439 19.6114 25.7368C19.4628 25.112 18.2973 23.1126 18.6387 22.6537C18.7108 22.6347 18.7945 22.6254 18.8889 22.6247Z" fill="url(#paint0_linear_9_1139)"/>
<path d="M17.7715 19.8606C21.0477 17.7388 28.9743 17.799 32.2992 19.776C32.4384 20.0121 32.4212 19.9064 32.3653 20.1715C31.6141 19.224 28.0075 18.646 26.7273 18.559C24.3423 18.3968 19.9859 18.6687 17.9513 19.9795L17.7715 19.8606Z" fill="#471313"/>
<path d="M11.8328 19.0293C12.0069 19.2335 11.9134 19.1752 12.2009 19.2327C12.224 20.2899 12.2689 21.4321 12.2217 22.4806L11.8346 22.6669C11.8442 21.7113 11.7465 19.8885 11.8328 19.0293Z" fill="#E15C4E"/>
<path d="M17.8566 21.173C17.7748 20.7391 17.7807 20.3029 17.7715 19.8613L17.9513 19.9803C17.9686 20.4559 17.9931 20.8061 17.9252 21.2799L17.8566 21.173Z" fill="#CF3130"/>
<path d="M134.633 22.2221C133.426 22.2316 132.215 22.2936 131.644 22.5036C131.381 22.6005 131.521 23.9989 131.55 24.4354C131.482 28.5102 131.674 32.6449 131.551 36.7271C128.794 33.599 126.333 30.04 123.686 26.8066C123.404 26.4621 122.446 25.3172 122.256 24.9748C121.8 24.3403 120.989 23.1626 120.432 22.6745L120.388 22.6348C119.79 22.1077 116.2 22.1355 115.471 22.4586C115.203 22.8184 115.331 24.5137 115.347 25.035C115.233 30.1054 115.446 35.2429 115.359 40.3213C115.319 42.6978 115.282 45.1712 115.439 47.5356C117.363 47.5542 119.38 47.6001 121.296 47.5616C121.222 45.7049 121.273 43.4653 121.27 41.5908C121.247 38.7371 121.259 35.8836 121.306 33.0299C121.979 33.5524 124.326 36.8033 125.066 37.7738C126.57 39.7162 128.085 41.6507 129.609 43.5768C130.625 44.8743 131.623 46.2372 132.686 47.4914C133.805 47.6541 136.252 47.565 137.484 47.541C137.609 45.3638 137.521 42.0825 137.528 39.8368L137.56 24.4819L137.594 22.2556C137.041 22.2553 135.839 22.2126 134.633 22.2221Z" fill="url(#paint1_linear_9_1139)"/>
<path d="M78.371 21.8399C75.3167 21.7375 72.2285 22.6304 69.8352 24.5522C67.3883 26.1711 65.6527 29.564 65.092 32.383C63.402 40.878 70.2409 48.726 78.947 48.0149C83.0431 47.6802 85.3587 46.1959 88.0466 43.2297C86.6782 42.1249 85.4817 40.7674 84.3196 39.8354C81.9235 41.6888 80.6644 43.0924 77.0778 42.6239C75.253 42.3916 73.5982 41.4361 72.4842 39.972C71.0361 38.088 70.7213 35.8912 71.017 33.5854C71.5608 29.3438 75.2615 26.8038 79.4208 27.4018C81.6186 27.7179 82.8568 28.8116 84.4066 30.2582C84.9684 29.7204 86.0135 28.7827 86.5016 28.2433C86.9068 27.9654 87.798 26.9989 88.1587 26.6098C87.6742 26.0527 87.2472 25.5974 86.7023 25.1C84.4455 23.0402 81.4253 21.9424 78.371 21.8399Z" fill="url(#paint2_linear_9_1139)"/>
<path d="M161.078 22.2582C153.925 22.3368 146.292 22.0827 139.199 22.3162C139.17 23.062 139.209 24.8356 139.304 25.5541C139.215 26.2059 139.246 26.8913 139.258 27.5507C141.804 27.5412 144.433 27.5689 146.971 27.5263L146.987 39.9287C146.988 41.8828 146.908 45.7047 147.097 47.5314C148.675 47.5584 151.511 47.6593 153.041 47.5214C153.086 43.5405 153.058 39.4974 153.053 35.5113C153.05 33.0354 153.141 29.9459 153.008 27.5309C154.267 27.5503 158.047 27.6184 159.246 27.5179C159.845 27.5392 160.503 27.5308 161.108 27.5362C161.081 25.8531 161.18 23.8935 161.078 22.2582Z" fill="url(#paint3_linear_9_1139)"/>
<path d="M181.515 21.8154C178.32 21.8501 175.228 22.829 173.35 25.1037C172.173 26.7813 171.474 28.6052 171.847 30.6869C172.165 32.5007 173.191 34.1127 174.7 35.1684C176.566 36.4572 178.764 36.9014 180.888 37.5755C182.176 37.9841 184.262 38.4734 184.553 40.0451C184.865 41.8253 183.341 42.6862 181.834 42.8558C178.823 43.194 175.995 41.806 173.499 40.2976C172.884 41.1972 171.836 43.6336 171.303 44.754C173.107 45.8569 174.795 46.7952 176.854 47.4143C181.43 48.799 187.124 47.9283 189.848 43.6416C190.777 42.1802 191.109 39.9381 190.666 38.3285C189.229 33.1073 182.844 32.9533 178.776 30.9997C177.659 30.4635 177.68 29.285 178.081 28.2355C178.535 27.8176 178.698 27.6356 179.266 27.394L179.485 27.346C182.319 26.7378 186.115 27.4507 188.558 29.0305C188.966 27.6063 189.771 25.6184 190.299 24.192C188.01 22.6902 184.711 21.7807 181.515 21.8154Z" fill="url(#paint4_linear_9_1139)"/>
<path d="M163.233 22.3495C163.985 22.2276 167.982 22.198 168.789 22.3454C168.884 22.5272 168.756 44.9074 168.857 47.5506C166.897 47.568 164.927 47.5175 162.966 47.565C162.959 47.5093 162.953 47.4537 162.948 47.398C162.858 46.4678 162.898 44.8203 162.898 43.8533L162.896 37.4989C162.891 32.6242 162.799 27.6998 162.81 22.8212C162.81 22.5643 162.784 22.5649 162.941 22.3739L163.233 22.3495Z" fill="url(#paint5_linear_9_1139)"/>
<path d="M163.233 22.3495C163.985 22.2276 167.983 22.198 168.789 22.3454L168.046 22.4058C168.341 22.5112 168.305 22.454 168.576 22.6516C168.59 22.7876 168.605 22.9236 168.618 23.0597C168.678 23.6898 168.988 25.8793 168.049 25.9279C167.818 25.59 168.163 23.3724 167.814 22.6608L167.76 22.6798C167.963 24.1075 167.825 26.1606 167.821 27.6826C167.378 27.2322 166.565 26.2385 165.985 26.2147C165.434 26.3981 164.68 27.2941 164.237 27.7527C164.195 26.2892 164.225 24.8357 164.246 23.3724C164.191 24.0268 164.15 24.7143 164.011 25.3535C163.806 25.5547 163.863 25.4968 163.56 25.5766C163.341 25.4689 163.228 25.4315 163.121 25.1376C162.901 24.5326 162.897 23.293 163.069 22.7016C163.172 22.3425 163.978 22.5886 164.436 22.4133C164.025 22.4133 163.643 22.3806 163.233 22.3495Z" fill="url(#paint6_linear_9_1139)"/>
<path d="M100.963 22.2687L100.361 22.2695C99.6609 22.2793 97.9918 22.2026 97.4532 22.5678C97.183 23.0222 95.6053 26.8581 95.3696 27.5154C94.7838 29.1485 93.1405 32.5327 92.7817 33.9722C91.9287 34.1385 90.821 34.3272 90.0107 34.5619C89.4729 34.666 87.8714 34.7616 87.6387 35.0586C87.9609 35.3791 89.0243 35.3833 89.4873 35.4065C90.2139 35.5332 91.2864 35.6888 91.9669 35.8963C90.3221 39.6299 88.607 43.8155 87.0703 47.5876C88.7988 47.5729 91.5251 47.6984 93.2028 47.5403C93.8803 45.9329 94.5717 43.9393 95.1163 42.2821C96.0292 42.2671 98.7243 42.1855 99.5047 42.3119C99.7222 43.8361 100.071 45.1809 100.39 46.6797C100.37 46.974 100.379 47.3228 100.587 47.5464C101.009 47.4167 101.513 43.0629 101.944 42.257C103.195 42.2526 104.521 42.2704 105.763 42.1967C106.383 43.346 107.436 46.1838 107.991 47.5289C109.765 47.6471 112.389 47.5592 114.231 47.5434C113.757 46.6823 113.04 44.8426 112.627 43.8759C111.519 41.2106 110.382 38.557 109.218 35.9154C109.457 35.7876 113.141 35.0916 113.674 34.9663C113.154 34.8462 112.738 34.7788 112.209 34.7023C110.974 34.3796 109.588 34.0058 108.336 33.8303C107.077 30.7039 104.98 25.7823 103.543 22.5594C103.387 22.2109 101.51 22.2699 100.963 22.2687Z" fill="url(#paint7_linear_9_1139)"/>
<path d="M100.702 23.9219L100.905 24.0015C101.363 25.1573 102.301 30.6026 102.634 32.2215C103.708 31.4689 104.696 30.5931 105.772 29.8762C105.116 30.9032 104.449 31.9895 103.709 32.9507C105.297 33.2245 106.764 33.4282 108.338 33.8298C109.59 34.0053 110.975 34.3791 112.21 34.7017C108.716 35.0449 104.324 34.7479 100.705 34.8836C100.619 33.8833 100.672 31.9122 100.667 30.8388C100.658 28.5677 100.63 26.1859 100.702 23.9219Z" fill="#E9695C"/>
<path d="M100.362 22.2698L100.965 22.2695C100.71 22.5387 100.764 23.4331 100.701 23.9233C100.63 26.1873 100.658 28.5691 100.667 30.8402C100.671 31.9136 100.619 33.8847 100.705 34.885C99.4319 34.9914 97.8363 34.9589 96.5353 34.9466C94.8777 34.6518 91.4878 35.2295 90.0117 34.5625C90.8221 34.3278 91.9299 34.1394 92.7828 33.9731C93.4611 34.0269 96.7771 33.052 97.505 32.7727C96.8584 31.7301 96.2677 30.7585 95.5023 29.7937C96.5457 30.622 97.5847 31.4558 98.6191 32.2953C98.9675 31.0564 99.0928 29.4885 99.3885 28.2196C99.8529 26.2292 100.292 24.4341 100.614 22.4049L100.362 22.2698Z" fill="#902B24"/>
<path d="M89.4875 35.4074C89.0245 35.3842 87.9609 35.3796 87.6387 35.0591C87.8714 34.7621 89.4728 34.6665 90.0106 34.5625C91.4867 35.2294 94.8766 34.6518 96.5342 34.9466C97.8351 34.9589 99.4308 34.9914 100.704 34.8849L100.69 42.0512C100.686 42.9502 100.827 46.1105 100.391 46.6805C100.071 45.1817 99.7219 43.8369 99.5044 42.3128C99.529 41.8495 98.8867 38.31 98.5988 37.8945C98.3306 37.969 98.3246 38.0528 98.1006 38.2882C97.5926 37.921 97.5069 37.5928 97.5254 37.0001C97.279 36.7263 92.7205 36.0039 91.9672 35.8967C91.2867 35.6892 90.2141 35.5341 89.4875 35.4074Z" fill="#E9695C"/>
<path d="M89.5089 35.407C89.0405 35.3834 87.9646 35.3786 87.6387 35.0516C87.8741 34.7485 89.494 34.651 90.038 34.5449C91.5313 35.2254 94.9604 34.636 96.6372 34.9368C95.4818 34.9842 90.3541 34.8263 89.6966 35.1296C89.5986 35.2385 89.5208 35.2842 89.5089 35.407Z" fill="#902B24"/>
<path d="M95.5332 40.009C95.9062 39.4084 97.3812 37.3877 97.5269 37C97.5084 37.5927 97.594 37.9208 98.1021 38.288C97.7337 38.427 96.0022 39.7035 95.5332 40.009Z" fill="#E9695C"/>
<path d="M112.21 34.7031C112.739 34.7796 113.156 34.8467 113.676 34.9668C113.143 35.0922 109.458 35.788 109.22 35.9158C108.532 35.9647 104.519 36.8828 103.712 37.0714C104.311 38.2431 104.956 39.0848 105.707 40.1574C104.607 39.2467 103.878 38.6518 102.675 37.8719C102.57 38.4602 101.845 41.9696 101.945 42.2579C101.515 43.0638 101.01 47.4171 100.588 47.5468C100.38 47.3232 100.372 46.9748 100.392 46.6805C100.829 46.1105 100.688 42.9502 100.691 42.0512L100.705 34.8849C104.324 34.7493 108.716 35.0463 112.21 34.7031Z" fill="#902B24"/>
<path d="M162.967 25.8975H164.152V22.3867H162.77L162.967 25.8975Z" fill="#B94337"/>
<path d="M167.953 26.1223H168.771V22.2852H167.816L167.953 26.1223Z" fill="#A1362C"/>
<defs>
<linearGradient id="paint0_linear_9_1139" x1="24.8992" y1="17.2782" x2="25.1742" y2="46.2221" gradientUnits="userSpaceOnUse">
<stop stop-color="#E15C4E"/>
<stop offset="1" stop-color="#782318"/>
</linearGradient>
<linearGradient id="paint1_linear_9_1139" x1="126.448" y1="23.7523" x2="126.448" y2="46.0554" gradientUnits="userSpaceOnUse">
<stop stop-color="#E15C4E"/>
<stop offset="1" stop-color="#782318"/>
</linearGradient>
<linearGradient id="paint2_linear_9_1139" x1="76.4964" y1="23.2771" x2="76.4964" y2="46.6147" gradientUnits="userSpaceOnUse">
<stop stop-color="#E15C4E"/>
<stop offset="1" stop-color="#782318"/>
</linearGradient>
<linearGradient id="paint3_linear_9_1139" x1="150.157" y1="23.9297" x2="150.157" y2="45.8775" gradientUnits="userSpaceOnUse">
<stop stop-color="#E15C4E"/>
<stop offset="1" stop-color="#782318"/>
</linearGradient>
<linearGradient id="paint4_linear_9_1139" x1="181.082" y1="25.1338" x2="181.082" y2="44.7024" gradientUnits="userSpaceOnUse">
<stop stop-color="#E15C4E"/>
<stop offset="1" stop-color="#782318"/>
</linearGradient>
<linearGradient id="paint5_linear_9_1139" x1="177.109" y1="35.1962" x2="154.462" y2="36.9658" gradientUnits="userSpaceOnUse">
<stop stop-color="#7F231C"/>
<stop offset="1" stop-color="#E25A4A"/>
</linearGradient>
<linearGradient id="paint6_linear_9_1139" x1="165.868" y1="22.077" x2="165.868" y2="27.9218" gradientUnits="userSpaceOnUse">
<stop stop-color="#E15C4E"/>
<stop offset="0.804217" stop-color="#782318"/>
</linearGradient>
<linearGradient id="paint7_linear_9_1139" x1="100.651" y1="21.3555" x2="100.651" y2="48.5311" gradientUnits="userSpaceOnUse">
<stop stop-color="#E15C4E"/>
<stop offset="1" stop-color="#782318"/>
</linearGradient>
</defs>
</svg>